<?xml version="1.0" encoding="UTF-8"?>
<svg version="1.1" xmlns="http://www.w3.org/2000/svg" width="2000" height="2000">
<path d="M0 0 C1.04941269 -0.00671722 2.09882538 -0.01343445 3.18003845 -0.02035522 C6.64839417 -0.03934838 10.11655645 -0.04326033 13.58496094 -0.04541016 C16.00006184 -0.05183789 18.41516196 -0.05856623 20.83026123 -0.06558228 C25.8941834 -0.07755887 30.95803733 -0.08126277 36.02197266 -0.08007812 C42.49939917 -0.07987509 48.9763862 -0.10716049 55.45370865 -0.14162254 C60.4432576 -0.16390178 65.43270103 -0.16791532 70.42229462 -0.16685867 C72.80962384 -0.16921372 75.19695602 -0.17803175 77.58423615 -0.19352341 C80.93016467 -0.21320024 84.27514882 -0.20733755 87.62109375 -0.1953125 C89.08962044 -0.21217102 89.08962044 -0.21217102 90.58781433 -0.22937012 C99.4315011 -0.14892951 106.26574178 2.53328808 112.88183594 8.47802734 C113.68234375 9.17283203 114.48285156 9.86763672 115.30761719 10.58349609 C121.11270732 17.53155734 122.16766179 24.62300282 122.17871094 33.45068359 C122.19524719 34.48116318 122.21178345 35.51164276 122.2288208 36.573349 C122.27702865 39.83330406 122.29861156 43.09279356 122.31933594 46.35302734 C122.34751831 48.57635772 122.37744888 50.79966666 122.40917969 53.02294922 C122.48277991 58.44539149 122.53458133 63.8677043 122.56933594 69.29052734 C124.01159307 66.90769233 125.45131686 64.52338663 126.88964844 62.13818359 C127.29481689 61.46936157 127.69998535 60.80053955 128.11743164 60.1114502 C131.21753478 54.96402006 133.99150932 49.71912693 136.56933594 44.29052734 C137.17057982 43.08073703 137.77431203 41.87217622 138.38183594 40.66552734 C138.77371094 39.88177734 139.16558594 39.09802734 139.56933594 38.29052734 C140.22933594 38.29052734 140.88933594 38.29052734 141.56933594 38.29052734 C141.64152344 37.72462891 141.71371094 37.15873047 141.78808594 36.57568359 C143.66467227 31.08666857 149.84499454 26.88429196 154.70605469 24.04052734 C163.22896631 20.66383093 174.03651585 20.86283666 182.46801758 24.30908203 C186.45161412 26.16966738 190.22013691 28.37476501 194.00683594 30.60302734 C195.87208903 31.68484749 197.7380029 32.76552894 199.60449219 33.84521484 C200.57789551 34.40950195 201.55129883 34.97378906 202.55419922 35.55517578 C207.65814275 38.49273292 212.80173666 41.35885518 217.94433594 44.22802734 C227.13993463 49.36586764 236.31953226 54.53100291 245.48706055 59.71875 C253.50656129 64.25681327 261.53543414 68.77801646 269.56933594 73.29052734 C269.56933594 73.95052734 269.56933594 74.61052734 269.56933594 75.29052734 C270.55933594 75.62052734 271.54933594 75.95052734 272.56933594 76.29052734 C272.56933594 76.95052734 272.56933594 77.61052734 272.56933594 78.29052734 C273.22933594 78.29052734 273.88933594 78.29052734 274.56933594 78.29052734 C280.1975618 85.20345693 283.23404043 93.57863317 282.34912109 102.51416016 C281.23428812 109.47740963 278.43546217 114.97600368 274.94433594 121.04052734 C274.40671631 121.99991211 273.86909668 122.95929688 273.31518555 123.94775391 C271.74769894 126.73720966 270.16234068 129.51558246 268.56933594 132.29052734 C268.15216309 133.02013672 267.73499023 133.74974609 267.30517578 134.50146484 C265.67644797 137.34945196 264.04256653 140.19310415 262.38574219 143.02490234 C259.96623459 147.37481277 257.76702542 151.82534528 255.56933594 156.29052734 C256.18639404 155.92926758 256.80345215 155.56800781 257.43920898 155.19580078 C264.80950892 150.88300722 272.18741585 146.5833978 279.56933594 142.29052734 C280.6033252 141.68837402 281.63731445 141.0862207 282.70263672 140.46582031 C285.57170986 138.79768928 288.44478092 137.13668979 291.31933594 135.47802734 C292.19291748 134.96916992 293.06649902 134.4603125 293.96655273 133.93603516 C294.77906494 133.46907227 295.59157715 133.00210938 296.42871094 132.52099609 C297.48783691 131.90840942 297.48783691 131.90840942 298.56835938 131.28344727 C305.93562816 127.62767834 316.2002981 128.18834807 323.81933594 130.72802734 C325.80044218 131.49887131 327.66806681 132.33989278 329.56933594 133.29052734 C329.56933594 133.95052734 329.56933594 134.61052734 329.56933594 135.29052734 C330.52839844 135.44521484 330.52839844 135.44521484 331.50683594 135.60302734 C332.18746094 135.82990234 332.86808594 136.05677734 333.56933594 136.29052734 C333.89933594 137.28052734 334.22933594 138.27052734 334.56933594 139.29052734 C335.55933594 139.62052734 336.54933594 139.95052734 337.56933594 140.29052734 C339.11572266 142.55615234 339.11572266 142.55615234 340.74902344 145.54052734 C341.3484375 146.62462891 341.94785156 147.70873047 342.56542969 148.82568359 C343.18546875 149.96908203 343.80550781 151.11248047 344.44433594 152.29052734 C345.36279297 153.95921875 345.36279297 153.95921875 346.29980469 155.66162109 C348.06323711 158.86751858 349.8166561 162.07874283 351.56933594 165.29052734 C354.68898323 170.97044443 357.88941093 176.59151897 361.19433594 182.16552734 C368.6281902 194.76287379 375.9937088 207.39775192 383.13183594 220.16552734 C383.54949219 220.90859131 383.96714844 221.65165527 384.39746094 222.41723633 C389.47918392 231.56032804 392.13934707 239.7544739 389.94433594 250.29052734 C389.26371094 251.77552734 389.26371094 251.77552734 388.56933594 253.29052734 C388.06853516 254.53962891 388.06853516 254.53962891 387.55761719 255.81396484 C383.9789752 263.65903586 379.40773189 267.04526143 371.91943359 271.02832031 C369.01361978 272.5889953 366.14221131 274.20657268 363.26855469 275.82568359 C357.85730989 278.87429961 352.43281226 281.89791921 346.99853516 284.90527344 C345.14588366 285.96175028 343.34385967 287.10751152 341.56933594 288.29052734 C342.12564194 288.29417297 342.68194794 288.2978186 343.25511169 288.30157471 C349.07991323 288.34360021 354.90394145 288.41308409 360.72827148 288.49804688 C362.8977889 288.52615738 365.06740685 288.54742093 367.23706055 288.56152344 C370.36787007 288.58309044 373.49748347 288.62981177 376.62792969 288.68115234 C377.58767197 288.68238098 378.54741425 288.68360962 379.53623962 288.68487549 C388.37993545 288.87436839 395.25774245 291.52610046 401.88183594 297.47802734 C403.08259766 298.52023437 403.08259766 298.52023437 404.30761719 299.58349609 C410.1252547 306.54657519 411.16054733 313.59021794 411.1027832 322.43481445 C411.11139877 323.51246567 411.12001434 324.59011688 411.12889099 325.70042419 C411.15147364 329.23982202 411.14482575 332.7784231 411.13574219 336.31787109 C411.14098118 338.79212172 411.14725867 341.26637034 411.15452576 343.74061584 C411.16491585 348.91774923 411.1603882 354.09460752 411.14575195 359.27172852 C411.12856765 365.89032847 411.15206379 372.50805998 411.18724155 379.12656307 C411.20925235 384.23370565 411.20776501 389.34064162 411.19947624 394.44781685 C411.19865874 396.88734451 411.20548351 399.32688765 411.22024727 401.76637077 C411.23776001 405.18373125 411.22309254 408.59954601 411.20043945 412.0168457 C411.21213165 413.01403625 411.22382385 414.01122681 411.23587036 415.03863525 C411.12630687 423.20462512 408.64932327 429.56981272 403.42871094 435.87646484 C402.73261719 436.46685547 402.03652344 437.05724609 401.31933594 437.66552734 C400.63355469 438.27138672 399.94777344 438.87724609 399.24121094 439.50146484 C391.95881956 444.37768597 385.5415902 445.88851173 376.84667969 445.89990234 C375.86059219 445.9164386 374.8745047 445.93297485 373.85853577 445.95001221 C370.74123724 445.99819211 367.62442545 446.01979645 364.50683594 446.04052734 C362.37985872 446.0687121 360.25290388 446.098643 358.12597656 446.13037109 C352.94046981 446.20394304 347.75522853 446.25370068 342.56933594 446.29052734 C343.34011475 446.71873779 344.11089355 447.14694824 344.9050293 447.58813477 C356.12646484 453.82226562 367.34790039 460.05639648 378.56933594 466.29052734 C378.56933594 466.95052734 378.56933594 467.61052734 378.56933594 468.29052734 C379.22933594 468.29052734 379.88933594 468.29052734 380.56933594 468.29052734 C380.56933594 468.95052734 380.56933594 469.61052734 380.56933594 470.29052734 C381.55933594 470.62052734 382.54933594 470.95052734 383.56933594 471.29052734 C389.25433191 479.13090347 392.47511106 488.26431372 391.25683594 497.97802734 C389.53443694 504.94441818 385.46135343 511.02022527 381.83251953 517.13427734 C379.77536696 520.64582963 377.83733143 524.22172806 375.88183594 527.79052734 C371.27094008 536.14513223 366.44469277 544.368782 361.61279297 552.59692383 C358.37780563 558.12583546 355.2217253 563.67466633 352.25683594 569.35302734 C349.22153947 575.16139165 345.95435244 580.78220201 342.53686523 586.37084961 C340.75235171 589.29121823 339.02967778 592.19306544 337.56933594 595.29052734 C336.90933594 595.29052734 336.24933594 595.29052734 335.56933594 595.29052734 C335.56933594 595.95052734 335.56933594 596.61052734 335.56933594 597.29052734 C333.91933594 597.95052734 332.26933594 598.61052734 330.56933594 599.29052734 C330.56933594 599.95052734 330.56933594 600.61052734 330.56933594 601.29052734 C320.78013828 605.1594198 312.97735134 607.71985697 302.56933594 604.29052734 C298.14718917 602.20194603 293.93026273 599.79358648 289.69433594 597.35302734 C288.50436029 596.67817285 287.3138433 596.00427208 286.12280273 595.33129883 C282.59583997 593.33341336 279.08193681 591.31355977 275.56933594 589.29052734 C274.54501465 588.70271484 273.52069336 588.11490234 272.46533203 587.50927734 C267.15331513 584.45893684 261.85458677 581.38700195 256.56933594 578.29052734 C257.20778676 581.38449132 258.25894524 583.77007167 259.83496094 586.50146484 C260.30699951 587.32340332 260.77903809 588.1453418 261.26538086 588.9921875 C261.77818604 589.87438965 262.29099121 590.7565918 262.81933594 591.66552734 C263.34567627 592.5851123 263.8720166 593.50469727 264.41430664 594.45214844 C267.26815029 599.41561044 270.19153864 604.32321726 273.22167969 609.18115234 C274.10774902 610.62095459 274.10774902 610.62095459 275.01171875 612.08984375 C276.14575183 613.92606351 277.29662294 615.75202764 278.46679688 617.56542969 C283.72881823 626.13041632 284.63169407 634.72463669 282.46386719 644.52880859 C279.13647162 654.80159754 273.1196243 660.07926547 263.82421875 665.07226562 C261.16639351 666.50822794 258.53627139 667.98957941 255.90527344 669.47412109 C251.59807324 671.90150828 247.28401618 674.31594969 242.96386719 676.72021484 C237.3750767 679.83462348 231.80862057 682.98569577 226.25683594 686.16552734 C225.43272217 686.63708252 224.6086084 687.1086377 223.75952148 687.59448242 C219.25761469 690.17243171 214.75908567 692.75621607 210.26219177 695.34289551 C207.75494278 696.78433025 205.24640627 698.22351545 202.73770142 699.66241455 C201.52043963 700.36134976 200.30376394 701.06130691 199.08773804 701.76239014 C174.87984259 715.71847736 174.87984259 715.71847736 163.11621094 713.00927734 C152.15464733 709.91582995 145.062859 704.4986906 139.44433594 694.54052734 C138.12654355 692.13727013 136.84519309 689.71623106 135.56933594 687.29052734 C134.55107667 685.4141282 133.53046063 683.53900491 132.50683594 681.66552734 C131.84820557 680.44784668 131.84820557 680.44784668 131.17626953 679.20556641 C129.46020376 676.0925574 127.68181353 673.02208508 125.88574219 669.95458984 C125.26256104 668.88934082 124.63937988 667.8240918 123.99731445 666.7265625 C123.52608154 665.9226709 123.05484863 665.1187793 122.56933594 664.29052734 C122.56791092 664.86966888 122.5664859 665.44881042 122.5650177 666.04550171 C122.54521769 672.11381426 122.49072534 678.18113481 122.41674805 684.24902344 C122.393657 686.50871648 122.37919338 688.76851578 122.3737793 691.02832031 C122.36442484 694.29086861 122.32329058 697.55176581 122.27636719 700.81396484 C122.28029984 701.8122934 122.28423248 702.81062195 122.2882843 703.83920288 C122.11961188 712.08465111 119.70709033 718.50002843 114.42871094 724.87646484 C113.73261719 725.46685547 113.03652344 726.05724609 112.31933594 726.66552734 C111.63355469 727.27138672 110.94777344 727.87724609 110.24121094 728.50146484 C102.87421159 733.43433868 96.47889499 734.88130843 87.68457031 734.80810547 C86.10957512 734.81861938 86.10957512 734.81861938 84.50276184 734.8293457 C81.05592863 734.84685087 77.60992649 734.83532894 74.16308594 734.82177734 C71.75370121 734.82447439 69.34431754 734.82835858 66.93493652 734.83337402 C61.89483233 734.83925898 56.85501245 734.83073808 51.81494141 734.81201172 C45.36896888 734.78922329 38.92366265 734.80235168 32.47771454 734.82630157 C27.50530009 734.84078639 22.53304245 734.83614115 17.56062317 734.82579041 C15.18447286 734.82313056 12.80830811 734.82636661 10.43217468 734.83570862 C7.10576912 734.84591804 3.78042825 734.83031044 0.45410156 734.80810547 C-0.51863205 734.81620239 -1.49136566 734.82429932 -2.49357605 734.8326416 C-8.9767947 734.75285384 -13.73409027 733.35915818 -19.43066406 730.29052734 C-20.44128906 729.75427734 -21.45191406 729.21802734 -22.49316406 728.66552734 C-23.13253906 728.21177734 -23.77191406 727.75802734 -24.43066406 727.29052734 C-24.43066406 726.63052734 -24.43066406 725.97052734 -24.43066406 725.29052734 C-25.09066406 725.29052734 -25.75066406 725.29052734 -26.43066406 725.29052734 C-27.86816406 723.34912109 -27.86816406 723.34912109 -29.43066406 720.72802734 C-29.94628906 719.88111328 -30.46191406 719.03419922 -30.99316406 718.16162109 C-34.06237786 712.03153375 -34.74431312 706.234537 -34.84472656 699.51318359 C-34.87377579 698.29616005 -34.87377579 698.29616005 -34.90341187 697.05455017 C-34.96273372 694.48747962 -35.00940142 691.92036306 -35.05566406 689.35302734 C-35.09388758 687.60235778 -35.1329418 685.85170615 -35.17285156 684.10107422 C-35.26839563 679.83103918 -35.35259944 675.56091624 -35.43066406 671.29052734 C-42.24773244 682.72995589 -42.24773244 682.72995589 -48.74316406 694.35302734 C-49.43732422 695.62726563 -49.43732422 695.62726563 -50.14550781 696.92724609 C-50.98205257 698.46557308 -51.80816447 700.00963467 -52.62207031 701.56005859 C-55.6147307 706.88363599 -58.98333474 709.59241301 -64.43066406 712.29052734 C-65.02492188 712.61021484 -65.61917969 712.92990234 -66.23144531 713.25927734 C-73.51595896 716.62855989 -82.20139138 716.77253708 -89.70800781 714.14208984 C-93.39033781 712.34689924 -96.90019776 710.36353169 -100.43066406 708.29052734 C-101.98661291 707.40664888 -103.54399056 706.52528246 -105.10253906 705.64599609 C-108.63819298 703.64410145 -112.16230392 701.62343265 -115.68066406 699.59130859 C-121.6689141 696.14043517 -127.70458034 692.77728572 -133.74316406 689.41552734 C-143.29865795 684.08797061 -152.7760871 678.63857919 -162.20141602 673.08398438 C-167.75971897 669.81519725 -173.36116583 666.68507047 -179.07983398 663.70410156 C-185.97316246 659.55908423 -190.18776332 652.05498019 -192.18066406 644.41552734 C-192.26316406 643.38427734 -192.34566406 642.35302734 -192.43066406 641.29052734 C-192.49382812 640.55060547 -192.55699219 639.81068359 -192.62207031 639.04833984 C-193.12442315 628.6447747 -188.44156159 621.04431241 -183.21582031 612.35693359 C-181.49840872 609.40689399 -179.97865848 606.42520789 -178.49316406 603.35302734 C-175.76272242 597.76736581 -172.59197839 592.5385132 -169.26269531 587.29833984 C-167.47489251 584.36314122 -165.92246102 581.38496686 -164.43066406 578.29052734 C-165.12804687 578.69400391 -165.82542969 579.09748047 -166.54394531 579.51318359 C-178.42087658 586.34350671 -190.40727033 592.97930868 -202.3996582 599.60424805 C-204.30709985 600.66544011 -206.20834162 601.73793196 -208.1003418 602.82641602 C-208.88481689 603.27605713 -209.66929199 603.72569824 -210.47753906 604.18896484 C-211.47479004 604.76976807 -211.47479004 604.76976807 -212.4921875 605.36230469 C-219.17605092 608.5628146 -226.57924917 607.34927237 -233.43066406 605.29052734 C-238.85142001 603.19154902 -243.22373902 600.28710613 -247.43066406 596.29052734 C-247.43066406 595.63052734 -247.43066406 594.97052734 -247.43066406 594.29052734 C-248.42066406 593.96052734 -249.41066406 593.63052734 -250.43066406 593.29052734 C-251.75927734 591.26123047 -251.75927734 591.26123047 -253.12597656 588.57177734 C-255.41638276 584.19210142 -257.79254151 579.89516021 -260.29785156 575.63427734 C-260.95527344 574.51021484 -261.61269531 573.38615234 -262.29003906 572.22802734 C-263.30848639 570.49114042 -264.32706429 568.7543208 -265.3515625 567.02099609 C-266.36035574 565.31220455 -267.36049669 563.59831427 -268.36035156 561.88427734 C-268.95058105 560.88074219 -269.54081055 559.87720703 -270.14892578 558.84326172 C-271.43066406 556.29052734 -271.43066406 556.29052734 -271.43066406 553.29052734 C-272.09066406 553.29052734 -272.75066406 553.29052734 -273.43066406 553.29052734 C-273.95144531 552.21029297 -274.47222656 551.13005859 -275.00878906 550.01708984 C-277.80959965 544.41792984 -281.00361778 539.05707178 -284.18066406 533.66552734 C-285.43088963 531.52894057 -286.68089074 529.39222243 -287.93066406 527.25537109 C-289.96474421 523.78466728 -292.00552831 520.31816995 -294.05566406 516.85693359 C-294.76427067 515.64745824 -295.47263179 514.43783901 -296.18066406 513.22802734 C-297.07011719 511.725625 -297.07011719 511.725625 -297.97753906 510.19287109 C-302.01681886 502.12516977 -302.86649519 493.33295577 -300.30566406 484.66552734 C-295.30486897 471.56485289 -286.00273868 465.80585186 -274.18066406 459.35302734 C-266.50908128 455.13319963 -258.90750932 450.84765435 -251.43066406 446.29052734 C-251.99949814 446.28688171 -252.56833221 446.28323608 -253.15440369 446.27947998 C-259.10895722 446.23746312 -265.06275367 446.16798492 -271.0168457 446.08300781 C-273.2348674 446.05489273 -275.45298752 446.03363143 -277.67114258 446.01953125 C-280.87144012 445.99797075 -284.07056593 445.95125227 -287.27050781 445.89990234 C-288.7429319 445.89805939 -288.7429319 445.89805939 -290.24510193 445.8961792 C-299.21126716 445.70815271 -307.92064852 442.70709768 -314.43066406 436.29052734 C-320.88864471 427.54100518 -322.73359965 419.74305844 -322.70532227 409.09179688 C-322.7104332 408.09085999 -322.71554413 407.0899231 -322.72080994 406.05865479 C-322.73466273 402.76348827 -322.73375233 399.46853194 -322.73144531 396.17333984 C-322.7353347 393.87319868 -322.73966987 391.57305823 -322.74443054 389.2729187 C-322.75188356 384.45633616 -322.75160817 379.63982693 -322.74633789 374.82324219 C-322.74054559 368.66430228 -322.7574732 362.50566332 -322.78068256 356.34677315 C-322.79544596 351.59742491 -322.79628802 346.84814871 -322.79317284 342.09878159 C-322.79368477 339.82868733 -322.79889837 337.5585889 -322.80898476 335.288517 C-322.8213817 332.10816389 -322.81453755 328.92839135 -322.80297852 325.74804688 C-322.81444412 324.35436386 -322.81444412 324.35436386 -322.82614136 322.93252563 C-322.75315183 313.80322843 -320.26174136 305.45096942 -314.43066406 298.29052734 C-306.81277441 291.06497535 -298.7053908 288.853409 -288.46191406 288.77880859 C-287.0805426 288.75188179 -287.0805426 288.75188179 -285.67126465 288.72441101 C-282.75777636 288.67064719 -279.84444867 288.63652189 -276.93066406 288.60302734 C-274.94366271 288.56982427 -272.95668246 288.53533188 -270.96972656 288.49951172 C-266.12348892 288.41494051 -261.2772961 288.34796844 -256.43066406 288.29052734 C-257.05932373 287.93861328 -257.6879834 287.58669922 -258.33569336 287.22412109 C-264.43260855 283.8067703 -270.51619771 280.36687644 -276.58837891 276.90576172 C-278.92163085 275.57980442 -281.26245452 274.26918168 -283.60644531 272.96240234 C-292.1002065 268.05179071 -298.09216967 262.86953857 -301.36816406 253.41552734 C-304.80182181 239.55213419 -300.28632452 230.1110839 -293.21582031 218.35693359 C-291.49840872 215.40689399 -289.97865848 212.42520789 -288.49316406 209.35302734 C-285.78448249 203.82009378 -282.63890987 198.65481327 -279.36816406 193.43896484 C-277.09390004 189.7432858 -275.02696017 185.96547224 -272.97753906 182.14208984 C-270.94206249 178.38982242 -268.81136474 174.69477635 -266.68383789 170.99414062 C-263.34397366 165.16896164 -260.08855195 159.29775114 -256.84375 153.41918945 C-250.37084816 141.7140687 -250.37084816 141.7140687 -244.43066406 137.29052734 C-243.77066406 137.29052734 -243.11066406 137.29052734 -242.43066406 137.29052734 C-242.10066406 136.30052734 -241.77066406 135.31052734 -241.43066406 134.29052734 C-232.46307025 129.80673044 -222.66268687 129.14609901 -213.16601562 132.21582031 C-208.0056402 134.24330805 -203.28088355 137.0148971 -198.49316406 139.79052734 C-197.41301025 140.40621582 -196.33285645 141.0219043 -195.2199707 141.65625 C-191.9505535 143.52359345 -188.68976747 145.40525217 -185.43066406 147.29052734 C-183.48025006 148.41310882 -181.52973516 149.535515 -179.57910156 150.65771484 C-175.18851985 153.18878901 -170.80687566 155.73469459 -166.43066406 158.29052734 C-172.03651387 147.437029 -178.08970316 136.85739798 -184.23754883 126.3046875 C-184.86459717 125.22622559 -185.49164551 124.14776367 -186.13769531 123.03662109 C-186.69948486 122.07425537 -187.26127441 121.11188965 -187.84008789 120.12036133 C-193.64861303 109.78626849 -195.71211967 100.99516581 -192.54394531 89.34130859 C-187.91734951 76.66281272 -178.02610336 71.26359327 -166.80566406 64.97802734 C-165.55660428 64.2722872 -164.30791317 63.56589422 -163.05957031 62.85888672 C-160.46951539 61.39265685 -157.87790749 59.92922969 -155.28515625 58.46777344 C-149.31868797 55.10156033 -143.3761836 51.69356329 -137.43066406 48.29052734 C-135.12732733 46.97533791 -132.82394161 45.66023428 -130.52050781 44.34521484 C-126.20637198 41.8813866 -121.8966771 39.40999177 -117.5909729 36.93145752 C-115.01349751 35.4481018 -112.43465985 33.96712356 -109.85571289 32.48632812 C-108.62683879 31.77983425 -107.39863307 31.07217634 -106.17114258 30.36328125 C-104.46898332 29.38035414 -102.76432637 28.40175623 -101.05957031 27.42333984 C-100.09092041 26.86533691 -99.12227051 26.30733398 -98.12426758 25.73242188 C-90.00274165 21.38494321 -80.55935477 19.9865506 -71.49316406 21.91552734 C-60.95631219 26.6463588 -55.10805967 33.68908103 -49.49316406 43.47802734 C-49.05931396 44.2247168 -48.62546387 44.97140625 -48.1784668 45.74072266 C-45.26304782 50.77955747 -42.42463795 55.85704794 -39.68457031 60.99365234 C-38.33322903 63.46900647 -36.88734888 65.87597783 -35.43066406 68.29052734 C-35.41608154 67.065354 -35.40149902 65.84018066 -35.38647461 64.57788086 C-35.32816109 59.99849395 -35.25093187 55.41958186 -35.16821289 50.84057617 C-35.13511826 48.86506908 -35.10703902 46.88947096 -35.08422852 44.91381836 C-35.0503965 42.06113163 -34.99806836 39.20926769 -34.94238281 36.35693359 C-34.93599289 35.48468643 -34.92960297 34.61243927 -34.92301941 33.71376038 C-34.74402338 26.1160141 -33.0235014 19.17596459 -28.86816406 12.72802734 C-28.454375 12.06673828 -28.04058594 11.40544922 -27.61425781 10.72412109 C-27.22367187 10.25103516 -26.83308594 9.77794922 -26.43066406 9.29052734 C-25.77066406 9.29052734 -25.11066406 9.29052734 -24.43066406 9.29052734 C-24.43066406 8.63052734 -24.43066406 7.97052734 -24.43066406 7.29052734 C-23.03701406 6.49502342 -21.64062976 5.70430896 -20.24316406 4.91552734 C-19.46585937 4.47466797 -18.68855469 4.03380859 -17.88769531 3.57958984 C-17.076875 3.15419922 -16.26605469 2.72880859 -15.43066406 2.29052734 C-14.77012024 1.93993256 -14.10957642 1.58933777 -13.42901611 1.2281189 C-8.96762436 -0.16696852 -4.6485756 -0.00426834 0 0 Z M-14.43066406 147.29052734 C-18.07706654 159.16269122 -21.66729692 171.04742906 -25.11816406 182.97802734 C-26.21667585 186.75053623 -27.32047486 190.52143865 -28.43066406 194.29052734 C-28.63288574 194.97840332 -28.83510742 195.6662793 -29.04345703 196.375 C-31.63927341 205.08331792 -33.91665626 212.71286073 -42.24316406 217.29052734 C-49.9217799 221.09851954 -57.25726504 219.09970897 -65.05566406 216.85302734 C-70.17546691 215.41610155 -75.16892494 214.10870662 -80.43066406 213.29052734 C-83.10426906 212.70704593 -85.76793014 212.10700285 -88.43066406 211.47802734 C-89.17179443 211.30424561 -89.9129248 211.13046387 -90.67651367 210.95141602 C-95.49518885 209.80308112 -100.24287905 208.50710296 -104.99316406 207.10302734 C-109.8426693 205.67670227 -114.39556315 204.69333542 -119.43066406 204.29052734 C-118.4007787 211.32356026 -117.05329595 218.24826867 -115.43066406 225.16552734 C-115.26469727 225.87829834 -115.09873047 226.59106934 -114.92773438 227.32543945 C-114.21276657 230.32050841 -113.45200214 233.22763162 -112.46191406 236.14599609 C-110.99872407 240.60761708 -109.98802618 245.15573721 -108.93066406 249.72802734 C-107.26807247 256.97846995 -107.26807247 256.97846995 -105.30175781 264.14990234 C-103.136612 271.95607828 -104.17065299 277.87991688 -107.75097656 285.06396484 C-111.44205328 289.95678747 -116.66203745 291.96728208 -122.30566406 293.91552734 C-123.45808594 294.32029297 -124.61050781 294.72505859 -125.79785156 295.14208984 C-128.97080759 296.14515336 -132.1199959 296.99852508 -135.35058594 297.78125 C-145.09669003 300.16744403 -154.78149336 302.85502117 -164.15332031 306.45068359 C-166.27225573 307.23210918 -168.37128097 307.84855467 -170.55566406 308.41552734 C-171.97878906 308.84865234 -171.97878906 308.84865234 -173.43066406 309.29052734 C-173.92566406 310.28052734 -173.92566406 310.28052734 -174.43066406 311.29052734 C-173.77066406 311.29052734 -173.11066406 311.29052734 -172.43066406 311.29052734 C-172.21152344 311.83837891 -171.99238281 312.38623047 -171.76660156 312.95068359 C-170.00402282 316.03777326 -167.60097408 318.29323737 -165.05566406 320.72802734 C-162.26436982 323.41856631 -159.59877104 326.07552737 -157.20410156 329.13818359 C-156.61886719 329.84845703 -156.03363281 330.55873047 -155.43066406 331.29052734 C-154.77066406 331.29052734 -154.11066406 331.29052734 -153.43066406 331.29052734 C-153.43066406 331.95052734 -153.43066406 332.61052734 -153.43066406 333.29052734 C-152.77066406 333.29052734 -152.11066406 333.29052734 -151.43066406 333.29052734 C-151.16898438 333.86802734 -150.90730469 334.44552734 -150.63769531 335.04052734 C-147.53521796 340.82378609 -142.56901062 345.32666 -137.43066406 349.29052734 C-136.77066406 350.28052734 -136.11066406 351.27052734 -135.43066406 352.29052734 C-134.77066406 352.29052734 -134.11066406 352.29052734 -133.43066406 352.29052734 C-130.71978019 357.35084391 -130.27384386 361.47863282 -130.24316406 367.22802734 C-130.22898437 368.43330078 -130.21480469 369.63857422 -130.20019531 370.88037109 C-130.42376457 374.18843827 -131.03991704 376.31774095 -132.43066406 379.29052734 C-132.76066406 380.28052734 -133.09066406 381.27052734 -133.43066406 382.29052734 C-134.42066406 382.62052734 -135.41066406 382.95052734 -136.43066406 383.29052734 C-137.79705748 384.93019944 -139.12560596 386.60162862 -140.43066406 388.29052734 C-142.08202202 389.97236338 -143.7505424 391.63742518 -145.43066406 393.29052734 C-150.66597676 398.45008793 -155.794522 403.6053724 -160.55957031 409.20458984 C-163.69748189 412.70280442 -167.10506702 415.93086163 -170.48925781 419.18896484 C-172.65685192 421.05853243 -172.65685192 421.05853243 -172.43066406 423.29052734 C-173.75066406 423.95052734 -175.07066406 424.61052734 -176.43066406 425.29052734 C-173.34044445 427.90476526 -170.70744486 428.96553992 -166.80566406 429.97802734 C-159.62928806 431.92633068 -152.53188866 434.0842775 -145.43066406 436.29052734 C-138.41175402 438.47023571 -131.39742751 440.6105874 -124.30566406 442.54052734 C-117.06633412 444.59226813 -110.62539816 446.61002489 -106.43066406 453.29052734 C-102.02090957 461.4800714 -102.94823507 468.87554614 -105.49316406 477.47802734 C-108.29563569 487.48258297 -110.63081522 497.57852564 -112.9309082 507.70727539 C-114.35942416 513.93629319 -115.86107741 520.06001588 -117.89306641 526.12231445 C-118.50134903 528.57561053 -118.52186563 530.7725349 -118.43066406 533.29052734 C-115.51247167 532.6720627 -112.59625385 532.04604599 -109.68066406 531.41552734 C-108.85566406 531.24150391 -108.03066406 531.06748047 -107.18066406 530.88818359 C-106.38144531 530.71416016 -105.58222656 530.54013672 -104.75878906 530.36083984 C-104.02563477 530.20373535 -103.29248047 530.04663086 -102.53710938 529.88476562 C-100.32397952 529.26043112 -98.46655348 528.34811832 -96.43066406 527.29052734 C-95.02556867 526.94742265 -93.60627168 526.6597748 -92.18066406 526.41552734 C-87.69876605 525.5755816 -83.28604607 524.53894545 -78.86816406 523.41552734 C-77.49321967 523.06895249 -76.11821843 522.72260311 -74.74316406 522.37646484 C-74.040625 522.19954102 -73.33808594 522.02261719 -72.61425781 521.84033203 C-71.89367187 521.65889648 -71.17308594 521.47746094 -70.43066406 521.29052734 C-69.68171875 521.10135742 -68.93277344 520.9121875 -68.16113281 520.71728516 C-65.8988365 520.14978408 -63.63393885 519.59395722 -61.36816406 519.04052734 C-60.67843506 518.86537598 -59.98870605 518.69022461 -59.27807617 518.50976562 C-51.73255806 516.68738949 -45.75880353 517.23350574 -38.43066406 519.29052734 C-38.43066406 519.95052734 -38.43066406 520.61052734 -38.43066406 521.29052734 C-37.68816406 521.95052734 -36.94566406 522.61052734 -36.18066406 523.29052734 C-29.49773737 529.77256914 -27.67773219 541.56412119 -25.05566406 550.16552734 C-24.6628117 551.4438571 -24.26966078 552.72209514 -23.8762207 554.00024414 C-20.67590452 564.41466917 -17.5311973 574.84598598 -14.43066406 585.29052734 C-10.31048962 585.72593031 -10.31048962 585.72593031 -7.59082031 582.84130859 C-6.54793932 581.77185739 -5.51570113 580.69194634 -4.49316406 579.60302734 C-3.98076172 579.07257813 -3.46835937 578.54212891 -2.94042969 577.99560547 C-1.9193076 576.93815375 -0.90145191 575.87753764 0.11303711 574.8137207 C4.20232907 570.53658867 8.45419542 566.62680899 12.99511719 562.84130859 C13.51460937 562.32955078 14.03410156 561.81779297 14.56933594 561.29052734 C14.56933594 560.63052734 14.56933594 559.97052734 14.56933594 559.29052734 C15.13265625 559.05978516 15.69597656 558.82904297 16.27636719 558.59130859 C19.15760026 556.9568101 21.00122218 554.9007236 23.25683594 552.47802734 C29.80945693 545.87764672 34.68663116 542.08660364 44.19433594 541.72802734 C49.82321746 541.93211545 53.02412621 543.05837821 57.56933594 546.29052734 C58.22933594 546.29052734 58.88933594 546.29052734 59.56933594 546.29052734 C59.56933594 546.95052734 59.56933594 547.61052734 59.56933594 548.29052734 C60.22933594 548.29052734 60.88933594 548.29052734 61.56933594 548.29052734 C61.56933594 548.95052734 61.56933594 549.61052734 61.56933594 550.29052734 C63.21521569 552.0332851 63.21521569 552.0332851 65.31933594 553.79052734 C66.01542969 554.39896484 66.71152344 555.00740234 67.42871094 555.63427734 C69.46809052 557.34418091 69.46809052 557.34418091 71.70996094 558.25927734 C74.08242165 559.57509589 74.4260184 560.87284005 75.56933594 563.29052734 C77.33437246 565.08287867 77.33437246 565.08287867 79.38183594 566.72802734 C82.60168004 569.45385204 85.62373797 572.26531862 88.56933594 575.29052734 C89.33246094 576.05365234 90.09558594 576.81677734 90.88183594 577.60302734 C92.46391059 579.185102 94.03794386 580.77541893 95.59277344 582.38427734 C96.30691406 583.11646484 97.02105469 583.84865234 97.75683594 584.60302734 C98.76810547 585.64910156 98.76810547 585.64910156 99.79980469 586.71630859 C101.42364497 588.51208431 101.42364497 588.51208431 103.56933594 588.29052734 C103.79935303 587.47350342 104.02937012 586.65647949 104.26635742 585.81469727 C107.14611569 575.65323397 110.20100737 565.5498629 113.2902832 555.45043945 C113.93805359 553.33114305 114.58424591 551.21137478 115.22949219 549.09130859 C115.43569687 548.41501404 115.64190155 547.73871948 115.85435486 547.04193115 C117.30847575 542.24004117 118.63676764 537.41586689 119.86083984 532.55053711 C121.89335678 526.06707422 125.90432166 520.99457514 131.56933594 517.29052734 C138.4698418 514.46820694 144.51773435 515.57109572 151.56933594 517.29052734 C152.44847656 517.49935547 153.32761719 517.70818359 154.23339844 517.92333984 C157.35202097 518.68762199 160.45979962 519.49005265 163.56933594 520.29052734 C166.81820595 521.1075572 170.06882663 521.91754739 173.31933594 522.72802734 C178.24614523 523.95834105 183.17270419 525.18953941 188.09667969 526.43115234 C194.90225138 528.14507278 201.70652201 529.81992436 208.56933594 531.29052734 C206.19169863 520.95297382 203.69280913 510.64667458 201.13183594 500.35302734 C200.83196777 499.14646484 200.53209961 497.93990234 200.22314453 496.69677734 C198.31192337 489.0725434 196.31481606 481.48085843 193.99145508 473.97045898 C192.21650307 467.95915744 191.44990688 461.88710263 194.00683594 455.97802734 C194.27367187 455.34251953 194.54050781 454.70701172 194.81542969 454.05224609 C195.18861328 453.18019531 195.18861328 453.18019531 195.56933594 452.29052734 C195.89933594 451.30052734 196.22933594 450.31052734 196.56933594 449.29052734 C198.50683594 448.16552734 198.50683594 448.16552734 200.56933594 447.29052734 C201.22933594 446.96052734 201.88933594 446.63052734 202.56933594 446.29052734 C202.56933594 445.63052734 202.56933594 444.97052734 202.56933594 444.29052734 C203.61992188 444.03658203 204.67050781 443.78263672 205.75292969 443.52099609 C212.46052322 441.88246336 219.09896737 440.24380632 225.61621094 437.94287109 C227.66661198 437.25803714 229.71719884 436.73020454 231.81933594 436.22802734 C234.91569163 435.45393842 237.6275562 434.48314075 240.56933594 433.29052734 C241.32214844 433.14615234 242.07496094 433.00177734 242.85058594 432.85302734 C245.80244194 432.24229851 248.53499631 431.34177243 251.38183594 430.35302734 C256.07986102 428.75604725 260.73617569 427.40587202 265.56933594 426.29052734 C264.90933594 425.30052734 264.24933594 424.31052734 263.56933594 423.29052734 C262.90933594 423.29052734 262.24933594 423.29052734 261.56933594 423.29052734 C261.30378906 422.70916016 261.03824219 422.12779297 260.76464844 421.52880859 C257.42255029 415.27056598 251.85762082 410.58305935 246.52246094 406.05224609 C243.98189273 403.76065357 241.84449838 401.22467311 239.63964844 398.61474609 C236.4430947 395.02616218 233.00487628 391.68447419 229.56835938 388.3269043 C225.67106112 384.49397771 225.67106112 384.49397771 224.56933594 382.29052734 C223.90933594 382.29052734 223.24933594 382.29052734 222.56933594 382.29052734 C219.03048565 375.71837681 217.77094606 369.71085679 218.56933594 362.29052734 C219.34581054 359.75278109 220.3536786 357.67321572 221.56933594 355.29052734 C221.89933594 354.30052734 222.22933594 353.31052734 222.56933594 352.29052734 C223.22933594 352.29052734 223.88933594 352.29052734 224.56933594 352.29052734 C226.0698353 350.8069104 226.0698353 350.8069104 227.63183594 348.85302734 C230.32108588 345.68295517 233.10446971 342.7047121 236.06933594 339.79052734 C238.95516725 336.94886692 241.69029226 334.0585807 244.31933594 330.97802734 C246.8548864 328.01794665 249.5229019 325.72767457 252.56933594 323.29052734 C257.15697529 318.61003678 257.15697529 318.61003678 260.58886719 313.10302734 C261.56933594 311.29052734 261.56933594 311.29052734 264.56933594 310.29052734 C263.68618699 307.94428837 263.68618699 307.94428837 260.59667969 307.24755859 C259.2355752 306.8583536 257.87205117 306.47755816 256.50683594 306.10302734 C254.95991286 305.66309218 253.41304088 305.22297736 251.86621094 304.78271484 C251.02123047 304.54520508 250.17625 304.30769531 249.30566406 304.06298828 C244.28167059 302.64472317 239.2694311 301.18597467 234.25683594 299.72802734 C233.22445801 299.42856201 232.19208008 299.12909668 231.12841797 298.82055664 C224.97729839 297.02627397 218.88130763 295.15189983 212.83886719 293.01708984 C210.55198162 292.22453906 210.55198162 292.22453906 208.02636719 291.86865234 C205.22219052 291.20884607 203.69558529 290.19004154 201.44433594 288.41552734 C200.45046875 287.64595703 200.45046875 287.64595703 199.43652344 286.86083984 C195.02755159 283.15287607 193.39536137 280.08242334 192.56933594 274.29052734 C192.22796577 268.56386853 193.26760043 263.85640855 194.81933594 258.41552734 C195.28602008 256.71420819 195.7508309 255.01237418 196.21386719 253.31005859 C196.44541504 252.46266113 196.67696289 251.61526367 196.91552734 250.7421875 C197.85669832 247.21297205 198.69067154 243.66289335 199.50683594 240.10302734 C200.66761046 235.0534133 201.88071362 230.02081057 203.15136719 224.99755859 C203.4266626 223.90918701 203.70195801 222.82081543 203.9855957 221.69946289 C204.53384892 219.54000345 205.08503508 217.38128613 205.6394043 215.22338867 C205.88956299 214.23749756 206.13972168 213.25160645 206.39746094 212.23583984 C206.62336914 211.35428223 206.84927734 210.47272461 207.08203125 209.56445312 C207.67410765 207.18922011 207.67410765 207.18922011 207.56933594 204.29052734 C194.63708049 207.02535053 194.63708049 207.02535053 181.91308594 210.57568359 C177.18722815 212.01707022 172.36788544 213.11970553 167.56933594 214.29052734 C165.46472874 214.80957771 163.36055302 215.33038103 161.25683594 215.85302734 C159.76410156 216.22234375 159.76410156 216.22234375 158.24121094 216.59912109 C156.14570345 217.14137961 154.0708955 217.76371906 152.00683594 218.41552734 C144.03778876 220.44401208 136.9746059 221.34054913 129.56933594 217.29052734 C120.79438301 211.98474185 118.66209677 201.79542662 116.18652344 192.52099609 C114.94721899 188.04224396 113.55835854 183.60753344 112.19433594 179.16552734 C111.59112683 177.19297642 110.98826429 175.22031948 110.38574219 173.24755859 C110.08555176 172.26480957 109.78536133 171.28206055 109.47607422 170.26953125 C107.14711085 162.6179397 104.86066091 154.95345666 102.56933594 147.29052734 C95.88306021 150.40787594 91.30292618 155.50391466 86.61230469 161.06396484 C83.25105777 164.72727411 79.47696819 167.93072864 75.72949219 171.18896484 C75.01664063 171.88248047 74.30378906 172.57599609 73.56933594 173.29052734 C73.56933594 173.95052734 73.56933594 174.61052734 73.56933594 175.29052734 C73.01246094 175.53802734 72.45558594 175.78552734 71.88183594 176.04052734 C68.01232591 178.13215438 64.45124328 180.953582 61.56933594 184.29052734 C61.56933594 184.95052734 61.56933594 185.61052734 61.56933594 186.29052734 C60.90933594 186.29052734 60.24933594 186.29052734 59.56933594 186.29052734 C59.56933594 186.95052734 59.56933594 187.61052734 59.56933594 188.29052734 C58.45558594 188.72365234 58.45558594 188.72365234 57.31933594 189.16552734 C54.67798335 190.17118898 54.67798335 190.17118898 52.78417969 191.33349609 C47.47092037 193.62934888 40.62064085 193.16863599 35.13964844 191.59130859 C29.31765454 188.72296362 24.9570341 183.9723441 20.5534668 179.30517578 C19.25812986 177.93527632 17.91711258 176.60886737 16.56933594 175.29052734 C15.90933594 175.29052734 15.24933594 175.29052734 14.56933594 175.29052734 C14.31796875 174.70142578 14.06660156 174.11232422 13.80761719 173.50537109 C12.41478193 171.01408532 10.94847874 169.6675232 8.75683594 167.85302734 C4.49121741 164.29697012 0.65626102 160.4048539 -3.21972656 156.43115234 C-4.16501389 155.46758598 -5.11032653 154.50404445 -6.05566406 153.54052734 C-6.53261719 153.04681641 -7.00957031 152.55310547 -7.50097656 152.04443359 C-9.8067293 149.70665651 -11.26659226 148.34521795 -14.43066406 147.29052734 Z M-230.30566406 203.41552734 C-237.83434988 211.79096022 -241.81043261 222.8525449 -241.30566406 234.06787109 C-240.00069909 243.54246051 -235.72015803 253.29843277 -228.52832031 259.76318359 C-219.19036153 266.56233049 -208.51933133 270.3866709 -196.93066406 268.79052734 C-187.53105058 266.65795608 -178.19996403 262.21409277 -172.43066406 254.29052734 C-166.18339135 244.3035879 -162.88860788 233.79118262 -165.54394531 222.08740234 C-169.16797928 210.65652869 -174.58301535 202.70574184 -185.11816406 196.97802734 C-200.69335507 189.7342041 -217.29232126 191.69205332 -230.30566406 203.41552734 Z M262.69433594 477.41552734 C255.16565012 485.79096022 251.18956739 496.8525449 251.69433594 508.06787109 C252.99930091 517.54246051 257.27984197 527.29843277 264.47167969 533.76318359 C273.80963847 540.56233049 284.48066867 544.3866709 296.06933594 542.79052734 C305.46894942 540.65795608 314.80003597 536.21409277 320.56933594 528.29052734 C326.81660865 518.3035879 330.11139212 507.79118262 327.45605469 496.08740234 C323.83202072 484.65652869 318.41698465 476.70574184 307.88183594 470.97802734 C292.30664493 463.7342041 275.70767874 465.69205332 262.69433594 477.41552734 Z " fill="#008EF1" transform="translate(458.4306640625,629.70947265625)"/>
<path d="M0 0 C8.32233504 7.55626236 15.84457556 15.70757713 22.26708984 24.93994141 C22.92708984 25.26994141 23.58708984 25.59994141 24.26708984 25.93994141 C24.2582074 25.29736389 24.24932495 24.65478638 24.24017334 23.99273682 C24.15173336 17.30953866 24.09136931 10.62650651 24.04736328 3.94287109 C24.0272382 1.44801075 23.99993532 -1.04680237 23.96533203 -3.54150391 C23.91685528 -7.12593227 23.89412964 -10.70973744 23.87646484 -14.29443359 C23.8558197 -15.41122498 23.83517456 -16.52801636 23.81390381 -17.6786499 C23.81360168 -18.71942688 23.81329956 -19.76020386 23.81298828 -20.83251953 C23.80410583 -21.7474115 23.79522339 -22.66230347 23.78607178 -23.60491943 C24.26708984 -26.06005859 24.26708984 -26.06005859 25.71354675 -28.35443115 C29.56047028 -30.92396615 33.04614604 -30.61896117 37.57788086 -30.57763672 C38.51974243 -30.584646 39.461604 -30.59165527 40.43200684 -30.59887695 C43.54530312 -30.61648257 46.65769057 -30.60482579 49.77099609 -30.59130859 C51.93285802 -30.59400254 54.09471877 -30.59788414 56.25657654 -30.60290527 C60.78680968 -30.60880362 65.31672735 -30.60022545 69.84692383 -30.58154297 C75.66028953 -30.55873987 81.47291715 -30.57188337 87.28625584 -30.59583282 C91.74974657 -30.61026992 96.21306158 -30.6056946 100.67655754 -30.59532166 C102.82042465 -30.5926493 104.9643076 -30.59594191 107.1081562 -30.60523987 C110.10110018 -30.6153724 113.09283939 -30.59995087 116.08569336 -30.57763672 C116.97564499 -30.58573364 117.86559662 -30.59383057 118.78251648 -30.60217285 C119.59703278 -30.59089355 120.41154907 -30.57961426 121.25074768 -30.56799316 C121.95809838 -30.56648506 122.66544909 -30.56497696 123.39423466 -30.56342316 C126.13778144 -29.82604408 126.80449186 -28.44950092 128.26708984 -26.06005859 C128.63968533 -23.60759568 128.63968533 -23.60759568 128.63623333 -20.80456924 C128.64220648 -19.7341694 128.64817962 -18.66376956 128.65433377 -17.56093335 C128.64559525 -16.38584549 128.63685672 -15.21075762 128.62785339 -14.00006104 C128.63041667 -12.75115987 128.63297994 -11.5022587 128.63562089 -10.21551204 C128.64233678 -6.74696522 128.63031826 -3.27869572 128.61528671 0.18981576 C128.6023464 3.92938499 128.60671438 7.66893824 128.60899353 11.40852356 C128.61056754 17.88825951 128.60114505 24.36790493 128.58428001 30.8476181 C128.55991181 40.21621171 128.55208698 49.58476149 128.54831604 58.95338336 C128.54174813 74.15286633 128.52177776 89.35230105 128.4934082 104.55175781 C128.46587642 119.31770587 128.44463853 134.08364083 128.43188477 148.84960938 C128.4310966 149.75959213 128.43030842 150.66957489 128.42949637 151.60713288 C128.42558129 156.17219199 128.42179016 160.7372512 128.41806066 165.30231047 C128.38695418 203.18155486 128.33410915 241.06074438 128.26708984 278.93994141 C129.54874023 278.91375732 130.83039063 278.88757324 132.15087891 278.8605957 C136.9067234 278.7700843 141.66249183 278.71268846 146.41894531 278.6652832 C148.47734378 278.64014122 150.53565298 278.60602264 152.59375 278.56274414 C155.55279554 278.50207871 158.51066087 278.4737288 161.47021484 278.45166016 C162.39014221 278.42585373 163.31006958 278.4000473 164.25787354 278.37345886 C170.63950085 278.3706584 170.63950085 278.3706584 173.84764862 281.28075409 C175.58386045 284.53338084 175.77428577 286.71328179 175.78466797 290.39501953 C175.79727661 291.67985229 175.80988525 292.96468506 175.82287598 294.28845215 C175.81571593 295.68270417 175.80751188 297.07695117 175.79833984 298.47119141 C175.80103649 299.9093858 175.80492035 301.34757842 175.80993652 302.7857666 C175.81582359 305.7951804 175.80729494 308.80411824 175.78857422 311.81347656 C175.7657842 315.66387061 175.77891166 319.51314934 175.80286407 323.3635025 C175.81734403 326.33189237 175.81270621 329.30001942 175.80235291 332.26841736 C175.79969164 333.68774041 175.80293426 335.10708761 175.81227112 336.52638245 C175.82247083 338.51253785 175.80415832 340.49877732 175.78466797 342.48486328 C175.7814856 343.61339722 175.77830322 344.74193115 175.77502441 345.90466309 C175.14816351 349.65061274 173.97158149 351.30690658 171.26708984 353.93994141 C167.76634352 355.50775575 163.74752261 355.07426788 159.97021484 355.08520508 C159.24097809 355.08856369 158.51174133 355.0919223 157.76040649 355.09538269 C155.34595024 355.1048868 152.93156366 355.10683694 150.51708984 355.10791016 C148.82193982 355.11112809 147.12679008 355.11449256 145.43164062 355.11799622 C141.86734375 355.12398966 138.30307109 355.12583639 134.73876953 355.12524414 C131.11957741 355.12516347 127.50051344 355.1320062 123.88134766 355.14575195 C58.81104058 355.3892584 58.81104058 355.3892584 41.11474609 338.92431641 C32.37002666 329.5325247 29.0468899 316.5453645 29.01708984 303.93994141 C29.07918108 302.27234826 29.15357507 300.60482477 29.26708984 298.93994141 C25.39208358 300.23161016 24.70545859 301.85519854 22.39208984 305.18994141 C0.84688965 334.94562194 -35.25509657 352.27286324 -70.87036133 358.10229492 C-103.13989522 363.01080339 -139.04943872 360.2510737 -168.73291016 345.93994141 C-169.84956055 345.40626953 -169.84956055 345.40626953 -170.98876953 344.86181641 C-186.13443843 337.51549358 -198.45797515 328.49157002 -210.73291016 316.93994141 C-211.38388672 316.35341797 -212.03486328 315.76689453 -212.70556641 315.16259766 C-224.14673191 304.42622674 -232.62601517 290.80607518 -239.73291016 276.93994141 C-240.07805664 276.27414062 -240.42320313 275.60833984 -240.77880859 274.92236328 C-258.46957357 240.40460778 -263.95963808 201.73731005 -263.98291016 163.37744141 C-263.9835849 162.37750153 -263.98425964 161.37756165 -263.98495483 160.34732056 C-263.95179389 129.34679672 -260.14675307 99.2749989 -249.73291016 69.93994141 C-249.29462891 68.69599609 -248.85634766 67.45205078 -248.40478516 66.17041016 C-240.10479246 44.15634907 -227.96969187 24.92427292 -211.73291016 7.93994141 C-211.06388672 7.20775391 -210.39486328 6.47556641 -209.70556641 5.72119141 C-156.95357518 -50.07607306 -56.17280974 -49.62256089 0 0 Z M-130.09228516 71.05712891 C-156.67564867 101.56470322 -159.90315106 144.62896871 -157.53076172 183.22900391 C-155.78740281 202.54410483 -150.3008281 221.08934352 -140.73291016 237.93994141 C-140.20181641 238.92091797 -139.67072266 239.90189453 -139.12353516 240.91259766 C-127.65539153 260.64121107 -108.41118395 272.18248546 -86.90087891 277.97119141 C-62.95389571 283.21186858 -36.47306118 280.50137953 -15.60791016 267.18994141 C7.64660764 250.93906587 19.79805037 226.80640524 25.05273438 199.44604492 C31.81869599 160.8411861 30.30449586 114.39772055 7.82788086 80.75341797 C-5.55540961 61.76946523 -23.78167302 49.18412466 -46.73291016 44.93994141 C-77.29816592 39.72953766 -108.4252832 48.4788979 -130.09228516 71.05712891 Z " fill="#0094F7" transform="translate(1500.73291015625,1011.06005859375)"/>
<path d="M0 0 C1.40383567 -0.00627913 2.80766974 -0.01292716 4.21150208 -0.01991272 C8.78047571 -0.04075187 13.349449 -0.05128365 17.91845703 -0.0612793 C19.49774314 -0.0653319 21.07702908 -0.06944896 22.65631485 -0.07362938 C30.06624905 -0.09262243 37.47617356 -0.10687572 44.88612735 -0.11524135 C53.42739963 -0.12504641 61.96841504 -0.151475 70.50959671 -0.19174224 C77.12636882 -0.22186524 83.74306695 -0.23670585 90.35990632 -0.24002236 C94.30704924 -0.24237355 98.25391578 -0.25134578 102.20098495 -0.27648354 C105.90624733 -0.2997083 109.61104998 -0.30402053 113.3163662 -0.29372215 C115.32418623 -0.29298874 117.33198267 -0.31211014 119.33970642 -0.33178711 C121.13111305 -0.32137138 121.13111305 -0.32137138 122.95870972 -0.31074524 C123.99656553 -0.31313359 125.03442135 -0.31552195 126.10372734 -0.31798267 C129.49635035 0.30454558 130.66327673 1.53178238 132.80126953 4.17700195 C134.34123071 7.85084183 133.94898585 11.96734912 133.9465332 15.89550781 C133.94989182 16.6683461 133.95325043 17.44118439 133.95671082 18.23744202 C133.96619977 20.78892632 133.96816281 23.34034486 133.96923828 25.8918457 C133.97245199 27.66777066 133.97581615 29.44369535 133.97932434 31.21961975 C133.98531025 34.94101577 133.98716476 38.66238857 133.98657227 42.38378906 C133.9864706 47.14974724 134.00012928 51.91555657 134.01734447 56.68147945 C134.02846776 60.34892967 134.03049138 64.01634392 134.02996254 67.68380928 C134.03114191 69.44085771 134.03556128 71.19790709 134.04329491 72.95493889 C134.0531026 75.41309901 134.05021386 77.87093614 134.04418945 80.32910156 C134.04980896 81.05290009 134.05542847 81.77669861 134.06121826 82.52243042 C134.03653888 86.48941176 133.80813752 89.70792883 131.80126953 93.17700195 C128.67486833 95.17711314 126.20691909 95.42482197 122.5368042 95.41751099 C120.9382811 95.42163498 120.9382811 95.42163498 119.3074646 95.42584229 C117.56174667 95.41505646 117.56174667 95.41505646 115.78076172 95.40405273 C113.93646072 95.40449081 113.93646072 95.40449081 112.05490112 95.40493774 C108.68738048 95.40378349 105.32010533 95.39375591 101.95262814 95.37978983 C98.43190675 95.36728381 94.91118206 95.36611207 91.39044189 95.36373901 C84.72525855 95.35752387 78.06014084 95.34111259 71.39498639 95.32104003 C63.80617181 95.29868211 56.21735409 95.28768788 48.62851477 95.27764916 C33.01939501 95.25674638 17.41034074 95.22156974 1.80126953 95.17700195 C1.80240869 96.07555712 1.80240869 96.07555712 1.80357087 96.99226493 C1.84830968 132.48198415 1.88263388 167.97169852 1.90340019 203.46144007 C1.90590166 207.72103822 1.9084903 211.98063631 1.91113281 216.24023438 C1.91165743 217.08825742 1.91218205 217.93628046 1.91272257 218.81000117 C1.92142942 232.54800094 1.93720093 246.285984 1.95557512 260.02397384 C1.97426639 274.11638159 1.98538462 288.20878058 1.98944652 302.30120021 C1.99219318 310.99966233 2.0008739 319.69807723 2.01710247 328.39652482 C2.0276598 334.35826041 2.030873 340.31997152 2.02827229 346.28171577 C2.02698904 349.72329546 2.02898089 353.16479252 2.03968048 356.60635757 C2.04958845 360.33563535 2.04725346 364.06470887 2.04177856 367.79399109 C2.04760425 368.8844562 2.05342993 369.97492131 2.05943215 371.09843081 C2.05545005 372.0976704 2.05146796 373.09690998 2.04736519 374.12642956 C2.04850435 375.41766854 2.04850435 375.41766854 2.04966652 376.73499316 C1.65078686 380.65640794 0.59113791 383.38713357 -2.19873047 386.17700195 C-5.06154508 387.13456163 -7.69701303 387.30423938 -10.70150757 387.31071472 C-11.59864975 387.31497971 -12.49579193 387.31924469 -13.42012024 387.32363892 C-14.39684189 387.32318573 -15.37356354 387.32273254 -16.37988281 387.32226562 C-17.41446121 387.32562424 -18.44903961 387.32898285 -19.51496887 387.33244324 C-22.93821409 387.34194939 -26.36141037 387.34389618 -29.78466797 387.3449707 C-32.16354391 387.34818348 -34.54241965 387.35154757 -36.92129517 387.35505676 C-41.90961159 387.36104717 -46.8979107 387.36289675 -51.88623047 387.36230469 C-58.27752879 387.36220306 -64.66871603 387.37585612 -71.05998802 387.3930769 C-75.97391266 387.40419633 -80.88781044 387.40622391 -85.80174637 387.40569496 C-88.15805062 387.40687513 -90.51435556 387.41129895 -92.87064743 387.41902733 C-96.16677376 387.42882602 -99.46265884 387.42594952 -102.75878906 387.41992188 C-103.73146225 387.42554138 -104.70413544 387.43116089 -105.70628357 387.43695068 C-110.52239893 387.41457414 -114.79735498 387.37513641 -119.19873047 385.17700195 C-121.08166692 382.22878985 -121.44954181 379.9289642 -121.45320606 376.46710396 C-121.45903826 375.51825675 -121.46487045 374.56940954 -121.47087938 373.59180939 C-121.46710005 372.55234756 -121.46332073 371.51288573 -121.45942688 370.44192505 C-121.46325243 369.33513645 -121.46707797 368.22834785 -121.47101945 367.08802021 C-121.48136892 363.36519159 -121.47735336 359.64251665 -121.47338867 355.91967773 C-121.47773448 353.25530483 -121.48285273 350.59094332 -121.48887634 347.92657471 C-121.50164137 341.42794121 -121.50341421 334.929349 -121.50107608 328.43070509 C-121.49929218 323.13922225 -121.50104415 317.84775194 -121.50530052 312.5562706 C-121.50589571 311.80271548 -121.5064909 311.04916037 -121.50710412 310.27277025 C-121.50831594 308.74164447 -121.50953008 307.21051869 -121.5107465 305.67939292 C-121.52163221 291.3060999 -121.51945664 276.93283031 -121.51336166 262.55953597 C-121.50821041 249.45404068 -121.51939849 236.34862015 -121.53845987 223.24313964 C-121.55791581 209.7618518 -121.56607956 196.28059916 -121.56233662 182.79929721 C-121.56043386 175.24100153 -121.56281956 167.68276916 -121.57705116 160.12448502 C-121.5890663 153.67810875 -121.59025927 147.2318346 -121.578261 140.78545667 C-121.57243786 137.50574611 -121.5727645 134.22625647 -121.5832634 130.94655228 C-121.69372177 93.72115635 -116.49628213 58.0197565 -89.69873047 30.23950195 C-65.45142013 7.07587029 -32.5454069 0.06758067 0 0 Z " fill="#0078EE" transform="translate(1060.19873046875,978.822998046875)"/>
<path d="M0 0 C1.02342499 -0.00708481 2.04684998 -0.01416962 3.10128784 -0.02146912 C4.22343689 -0.0189917 5.34558594 -0.01651428 6.5017395 -0.01396179 C8.27525284 -0.02162819 8.27525284 -0.02162819 10.08459473 -0.02944946 C13.32849869 -0.04097968 16.57224444 -0.04341702 19.81616354 -0.04088616 C22.52486012 -0.03981683 25.2335331 -0.04469897 27.94222462 -0.04949158 C34.33382563 -0.06059049 40.72536789 -0.06102238 47.11697388 -0.05497742 C53.70795633 -0.04893963 60.2987252 -0.06124265 66.88967121 -0.08254749 C72.55007407 -0.1001708 78.210409 -0.10616361 83.87083828 -0.10290974 C87.2507623 -0.10109751 90.63053404 -0.10372671 94.0104332 -0.11762428 C97.78114083 -0.12993867 101.55135251 -0.12322625 105.322052 -0.11161804 C106.44015259 -0.11926178 107.55825317 -0.12690552 108.7102356 -0.13478088 C109.73930023 -0.12776657 110.76836487 -0.12075226 111.82861328 -0.11352539 C113.16536008 -0.113777 113.16536008 -0.113777 114.52911186 -0.1140337 C117.61965681 0.34696869 119.51484041 1.45161323 122.04129028 3.26069641 C123.25000013 5.67811611 123.17497123 7.21469112 123.1884613 9.9160614 C123.19919426 11.38819847 123.19919426 11.38819847 123.21014404 12.89007568 C123.21283295 13.97063736 123.21552185 15.05119904 123.21829224 16.164505 C123.22486343 17.29953964 123.23143463 18.43457428 123.23820496 19.60400391 C123.25796937 23.37238118 123.26960638 27.14071858 123.27957153 30.90913391 C123.28364706 32.19311695 123.28772259 33.47709999 123.29192162 34.79999161 C123.31063998 40.89220157 123.32520416 46.98439145 123.33353359 53.07662427 C123.34331025 60.11134906 123.36964109 67.14575954 123.41003448 74.18037355 C123.44381153 80.27152023 123.45567671 86.36253453 123.45973778 92.45376968 C123.46462164 95.04619608 123.47628632 97.63861868 123.49477577 100.23098373 C123.51901114 103.85361294 123.51823055 107.47541405 123.51126099 111.09809875 C123.53047607 112.71286858 123.53047607 112.71286858 123.55007935 114.36026001 C123.49927258 121.58244762 123.49927258 121.58244762 121.26191711 124.89585876 C117.62871828 127.12888886 114.37017364 127.38611912 110.15887451 127.39440918 C109.17759079 127.39867416 108.19630707 127.40293915 107.18528748 127.40733337 C106.11505844 127.40688019 105.04482941 127.406427 103.94216919 127.40596008 C102.81005508 127.4093187 101.67794098 127.41267731 100.51152039 127.4161377 C96.76362007 127.42564792 93.01576442 127.42759084 89.26785278 127.42866516 C86.66477439 127.43187764 84.06169618 127.4352417 81.45861816 127.43875122 C75.99951893 127.44514434 70.54043182 127.4466339 65.08132935 127.44599915 C58.77838838 127.44539855 52.47553304 127.4559481 46.17261374 127.47174281 C40.10176591 127.48641199 34.03095908 127.48998673 27.96009445 127.48938942 C25.38050359 127.49057009 22.80091211 127.49499671 20.22133255 127.50272179 C16.61388279 127.51251354 13.00665372 127.5096467 9.39920044 127.50361633 C7.79992958 127.51204559 7.79992958 127.51204559 6.16835022 127.52064514 C-3.72292152 127.47860659 -3.72292152 127.47860659 -7.95870972 125.26069641 C-12.1463288 120.85715376 -11.38051221 115.10596749 -11.34689331 109.39936829 C-11.35215027 108.30451614 -11.35740723 107.209664 -11.36282349 106.08163452 C-11.37602267 102.46409319 -11.36728532 98.84699219 -11.35714722 95.22944641 C-11.35916797 92.71508194 -11.36207941 90.20071805 -11.36584473 87.68635559 C-11.37026797 82.41730764 -11.36412322 77.14837412 -11.349823 71.87934875 C-11.33349725 65.79385809 -11.33878611 59.70866899 -11.35530221 53.62318563 C-11.37057327 47.76107437 -11.36893567 41.89907743 -11.36015701 36.03695679 C-11.35815496 33.54585732 -11.36061444 31.05475016 -11.36759567 28.56365967 C-11.37520952 25.08290687 -11.36360602 21.60273411 -11.34689331 18.12202454 C-11.35600235 16.57582176 -11.35600235 16.57582176 -11.36529541 14.99838257 C-11.2865817 6.15466261 -11.2865817 6.15466261 -7.95870972 2.26069641 C-4.6952691 0.08506933 -3.77589914 0.00870546 0 0 Z " fill="#000DE1" transform="translate(1740.9587097167969,1238.7393035888672)"/>
<path d="M0 0 C10.6751006 5.03917792 20.82807982 10.96737279 31.03564453 16.88012695 C32.33746765 17.62229233 33.65968574 18.32984287 35 19 C35 19.66 35 20.32 35 21 C35.66 21 36.32 21 37 21 C37 21.66 37 22.32 37 23 C37.99 23.33 38.98 23.66 40 24 C45.68499597 31.84037612 48.90577512 40.97378638 47.6875 50.6875 C45.96510101 57.65389084 41.89201749 63.72969792 38.26318359 69.84375 C36.20603102 73.35530228 34.26799549 76.93120072 32.3125 80.5 C27.70160414 88.85460488 22.87535684 97.07825465 18.04345703 105.30639648 C14.80846969 110.83530811 11.65238936 116.38413899 8.6875 122.0625 C5.65220353 127.8708643 2.3850165 133.49167466 -1.0324707 139.08032227 C-2.81698422 142.00069089 -4.53965816 144.90253809 -6 148 C-6.66 148 -7.32 148 -8 148 C-8 148.66 -8 149.32 -8 150 C-10.475 150.99 -10.475 150.99 -13 152 C-13 152.66 -13 153.32 -13 154 C-22.79219492 157.87007704 -30.58806142 160.42475335 -41 157 C-45.38061365 154.93237379 -49.55532872 152.54397799 -53.75 150.125 C-54.93472846 149.45268169 -56.12003884 148.78138787 -57.3059082 148.11108398 C-60.29941436 146.41544138 -63.28499784 144.70637375 -66.26837158 142.99298096 C-68.98595134 141.43461837 -71.71003881 139.88773293 -74.43359375 138.33984375 C-79.29644185 135.57266309 -84.15164134 132.79248405 -89 130 C-88.34 128.02 -87.68 126.04 -87 124 C-87.928125 124.495 -87.928125 124.495 -88.875 125 C-91 126 -91 126 -93 126 C-93.66 126.66 -94.32 127.32 -95 128 C-97.32716 128.37400786 -99.66117862 128.70764733 -102 129 C-102.66 129.33 -103.32 129.66 -104 130 C-104 130.66 -104 131.32 -104 132 C-105.28788008 132.53012738 -106.58046678 133.0488329 -107.875 133.5625 C-108.59429688 133.85253906 -109.31359375 134.14257812 -110.0546875 134.44140625 C-112 135 -112 135 -114 134 C-114.33 134.66 -114.66 135.32 -115 136 C-116.2065625 136.2165625 -116.2065625 136.2165625 -117.4375 136.4375 C-120.34440658 136.76502717 -120.34440658 136.76502717 -122 140 C-122.66 140 -123.32 140 -124 140 C-124 139.34 -124 138.68 -124 138 C-124.61875 138.185625 -125.2375 138.37125 -125.875 138.5625 C-128 139 -128 139 -130 138 C-131.125 135.9375 -131.125 135.9375 -132 134 C-132.5775 134.515625 -133.155 135.03125 -133.75 135.5625 C-136 137 -136 137 -138.25 136.6875 C-139.11625 136.3471875 -139.11625 136.3471875 -140 136 C-140.75 133.25 -140.75 133.25 -141 130 C-138.81567858 127.11357527 -137.44696406 126.14898802 -134 125 C-131.94629543 121.72928532 -131 119.6395342 -131 115.75 C-131 114.8425 -131 113.935 -131 113 C-128 111 -128 111 -125.8125 111.375 C-125.214375 111.58125 -124.61625 111.7875 -124 112 C-124 111.01 -124 110.02 -124 109 C-124.66 108.34 -125.32 107.68 -126 107 C-124.6875 105.5 -124.6875 105.5 -123 104 C-122.01 104 -121.02 104 -120 104 C-120 103.34 -120 102.68 -120 102 C-119.34 102 -118.68 102 -118 102 C-118 102.66 -118 103.32 -118 104 C-114.37206002 102.13433512 -114.37206002 102.13433512 -112 99 C-110.68 99 -109.36 99 -108 99 C-107.505 97.515 -107.505 97.515 -107 96 C-106.01 95.67 -105.02 95.34 -104 95 C-103.01 96.98 -102.02 98.96 -101 101 C-100.67 100.34 -100.34 99.68 -100 99 C-99.01 99.495 -99.01 99.495 -98 100 C-98 98.02 -98 96.04 -98 94 C-98.66 94 -99.32 94 -100 94 C-100 93.34 -100 92.68 -100 92 C-99.34 92 -98.68 92 -98 92 C-98.33 91.01 -98.66 90.02 -99 89 C-97.35 88.01 -95.7 87.02 -94 86 C-93.54625 86.474375 -93.0925 86.94875 -92.625 87.4375 C-91.06741796 89.09027808 -91.06741796 89.09027808 -89 90 C-89.185625 89.401875 -89.37125 88.80375 -89.5625 88.1875 C-90 86 -90 86 -89 83 C-88.01 83.33 -87.02 83.66 -86 84 C-84.88625 83.5978125 -84.88625 83.5978125 -83.75 83.1875 C-81 83 -81 83 -79.54296875 84.08984375 C-79.01316406 84.59644531 -78.48335937 85.10304688 -77.9375 85.625 C-71.39889447 91.73624569 -61.96159867 95.24721651 -53 95 C-42.63875873 94.24645518 -32.84927639 90.42201841 -25.5625 82.875 C-18.96515445 74.71078488 -15.42616489 64.89023277 -16.1875 54.421875 C-17.10481927 47.73308863 -19.53196771 42.47422073 -22.85546875 36.62890625 C-24 34 -24 34 -23.67578125 31.65234375 C-23.34126953 30.83443359 -23.34126953 30.83443359 -23 30 C-24.485 29.505 -24.485 29.505 -26 29 C-25.236875 28.731875 -24.47375 28.46375 -23.6875 28.1875 C-21.10563792 27.04667722 -19.82139176 26.09460052 -18 24 C-17.505 23.505 -17.505 23.505 -17 23 C-18.36983503 19.83884224 -18.9890638 19.0072908 -22 17 C-21.071875 16.7525 -20.14375 16.505 -19.1875 16.25 C-15.77824707 14.91303807 -14.96587748 13.94881621 -13 11 C-12.34 11 -11.68 11 -11 11 C-10.34 8.69 -9.68 6.38 -9 4 C-8.01 4.33 -7.02 4.66 -6 5 C-5.67 4.67 -5.34 4.34 -5 4 C-3.33729713 2.66172696 -1.67083819 1.32810215 0 0 Z M-123 130 C-122.67 131.65 -122.34 133.3 -122 135 C-121.34 134.67 -120.68 134.34 -120 134 C-120.66 132.68 -121.32 131.36 -122 130 C-122.33 130 -122.66 130 -123 130 Z M-24 18 C-23.01 18.495 -23.01 18.495 -22 19 C-22.66 19.66 -23.32 20.32 -24 21 C-24 20.01 -24 19.02 -24 18 Z M-26 21 C-24 22 -24 22 -24 22 Z " fill="#007BEF" transform="translate(802,1077)"/>
<path d="M0 0 C0.99 0.33 1.98 0.66 3 1 C3.7425 0.731875 4.485 0.46375 5.25 0.1875 C8 0 8 0 9.45703125 1.08984375 C9.98683594 1.59644531 10.51664063 2.10304688 11.0625 2.625 C20.58708728 11.52706524 32.68895861 12.19541336 45 12 C44.01 12.66 43.02 13.32 42 14 C42.99 17.96 42.99 17.96 44 22 C44.66 22 45.32 22 46 22 C46.495 24.475 46.495 24.475 47 27 C46.34 27 45.68 27 45 27 C44.67 27.66 44.34 28.32 44 29 C41.5625 31.625 41.5625 31.625 39 34 C38.34 34 37.68 34 37 34 C37.185625 34.61875 37.37125 35.2375 37.5625 35.875 C38 38 38 38 37 40 C36.9850079 42.11553061 36.9850079 42.11553061 37.25 44.4375 C37.35054687 45.61119141 37.35054687 45.61119141 37.453125 46.80859375 C38.09462806 49.37918816 39.08833926 50.23736658 41 52 C41 52.66 41 53.32 41 54 C41.66 54 42.32 54 43 54 C43.33 53.01 43.66 52.02 44 51 C44 52.32 44 53.64 44 55 C43.01 55.99 43.01 55.99 42 57 C42 57.66 42 58.32 42 59 C41.34 59 40.68 59 40 59 C40 59.66 40 60.32 40 61 C40.66 61.66 41.32 62.32 42 63 C41.34 63 40.68 63 40 63 C40 63.66 40 64.32 40 65 C41.98 65.495 41.98 65.495 44 66 C44 66.66 44 67.32 44 68 C44.66 68 45.32 68 46 68 C45.505 69.98 45.505 69.98 45 72 C44.33282959 71.63575928 43.66565918 71.27151855 42.97827148 70.89624023 C38.16681603 68.27047259 33.35368333 65.64792707 28.53515625 63.03515625 C18.94024497 57.82663786 9.36676876 52.61215681 0 47 C0.66 45.02 1.32 43.04 2 41 C1.071875 41.495 1.071875 41.495 0.125 42 C-2 43 -2 43 -4 43 C-4.66 43.66 -5.32 44.32 -6 45 C-8.32716 45.37400786 -10.66117862 45.70764733 -13 46 C-13.99 46.495 -13.99 46.495 -15 47 C-15 47.66 -15 48.32 -15 49 C-16.28788008 49.53012738 -17.58046678 50.0488329 -18.875 50.5625 C-19.59429688 50.85253906 -20.31359375 51.14257812 -21.0546875 51.44140625 C-23 52 -23 52 -25 51 C-25.33 51.66 -25.66 52.32 -26 53 C-26.804375 53.144375 -27.60875 53.28875 -28.4375 53.4375 C-31.34440658 53.76502717 -31.34440658 53.76502717 -33 57 C-33.66 57 -34.32 57 -35 57 C-35 56.34 -35 55.68 -35 55 C-35.61875 55.185625 -36.2375 55.37125 -36.875 55.5625 C-39 56 -39 56 -41 55 C-42.125 52.9375 -42.125 52.9375 -43 51 C-43.5775 51.515625 -44.155 52.03125 -44.75 52.5625 C-47 54 -47 54 -49.25 53.6875 C-49.8275 53.460625 -50.405 53.23375 -51 53 C-51.75 50.25 -51.75 50.25 -52 47 C-49.81567858 44.11357527 -48.44696406 43.14898802 -45 42 C-42.94629543 38.72928532 -42 36.6395342 -42 32.75 C-42 31.8425 -42 30.935 -42 30 C-39 28 -39 28 -36.8125 28.375 C-35.9153125 28.684375 -35.9153125 28.684375 -35 29 C-35 28.01 -35 27.02 -35 26 C-35.66 25.34 -36.32 24.68 -37 24 C-35.6875 22.5 -35.6875 22.5 -34 21 C-33.01 21 -32.02 21 -31 21 C-31 20.34 -31 19.68 -31 19 C-30.34 19 -29.68 19 -29 19 C-29 19.66 -29 20.32 -29 21 C-25.37206002 19.13433512 -25.37206002 19.13433512 -23 16 C-21.68 16 -20.36 16 -19 16 C-18.67 15.01 -18.34 14.02 -18 13 C-17.01 12.67 -16.02 12.34 -15 12 C-14.01 13.98 -13.02 15.96 -12 18 C-11.67 17.34 -11.34 16.68 -11 16 C-10.34 16.33 -9.68 16.66 -9 17 C-9 15.02 -9 13.04 -9 11 C-9.66 11 -10.32 11 -11 11 C-11 10.34 -11 9.68 -11 9 C-10.34 9 -9.68 9 -9 9 C-9.495 7.515 -9.495 7.515 -10 6 C-8.35 5.01 -6.7 4.02 -5 3 C-4.54625 3.474375 -4.0925 3.94875 -3.625 4.4375 C-2.06741796 6.09027808 -2.06741796 6.09027808 0 7 C-0.185625 6.401875 -0.37125 5.80375 -0.5625 5.1875 C-1 3 -1 3 0 0 Z M-34 47 C-33.67 48.65 -33.34 50.3 -33 52 C-32.34 51.67 -31.68 51.34 -31 51 C-31.66 49.68 -32.32 48.36 -33 47 C-33.33 47 -33.66 47 -34 47 Z " fill="#0067EC" transform="translate(713,1160)"/>
<path d="M0 0 C0.99 0.33 1.98 0.66 3 1 C3.7425 0.731875 4.485 0.46375 5.25 0.1875 C8 0 8 0 9.45703125 1.08984375 C9.98683594 1.59644531 10.51664063 2.10304688 11.0625 2.625 C17.56033662 8.71140155 26.23119471 11.49410739 35 12 C34.67 12.66 34.34 13.32 34 14 C33.34 14 32.68 14 32 14 C31.731875 15.11375 31.46375 16.2275 31.1875 17.375 C30 21 30 21 27 23 C26.505 22.01 26.505 22.01 26 21 C26.66 21 27.32 21 28 21 C27.67 20.67 27.34 20.34 27 20 C26.01 20 25.02 20 24 20 C23.505 22.475 23.505 22.475 23 25 C21.824375 24.7525 21.824375 24.7525 20.625 24.5 C18.11791961 23.9376293 18.11791961 23.9376293 16 24 C15.34 24.66 14.68 25.32 14 26 C13.01 26 12.02 26 11 26 C10.78601563 26.64453125 10.57203125 27.2890625 10.3515625 27.953125 C9 30 9 30 6.3984375 30.609375 C5.40070312 30.65578125 4.40296875 30.7021875 3.375 30.75 C2.37210938 30.80671875 1.36921875 30.8634375 0.3359375 30.921875 C-0.43492187 30.94765625 -1.20578125 30.9734375 -2 31 C-2 32.32 -2 33.64 -2 35 C-3.98 35.495 -3.98 35.495 -6 36 C-6.66 34.68 -7.32 33.36 -8 32 C-7.34 31.34 -6.68 30.68 -6 30 C-6.3185177 27.89179203 -6.3185177 27.89179203 -7 26 C-10.10551666 26 -11.35261084 26.5393715 -14 28 C-14.66 27.34 -15.32 26.68 -16 26 C-14.68 24.68 -13.36 23.36 -12 22 C-12.66 21.01 -13.32 20.02 -14 19 C-13.01 18.01 -12.02 17.02 -11 16 C-10.34 16.33 -9.68 16.66 -9 17 C-9 15.02 -9 13.04 -9 11 C-9.66 11 -10.32 11 -11 11 C-11 10.34 -11 9.68 -11 9 C-10.34 9 -9.68 9 -9 9 C-9.33 8.01 -9.66 7.02 -10 6 C-8.35 5.01 -6.7 4.02 -5 3 C-4.54625 3.474375 -4.0925 3.94875 -3.625 4.4375 C-2.06741796 6.09027808 -2.06741796 6.09027808 0 7 C-0.185625 6.401875 -0.37125 5.80375 -0.5625 5.1875 C-1 3 -1 3 0 0 Z " fill="#0077EE" transform="translate(713,1160)"/>
<path d="M0 0 C-0.99 1.485 -0.99 1.485 -2 3 C-1.21625 2.814375 -0.4325 2.62875 0.375 2.4375 C3 2 3 2 5 3 C5.33 2.34 5.66 1.68 6 1 C6.66 1.66 7.32 2.32 8 3 C8.66 2.67 9.32 2.34 10 2 C10 3.32 10 4.64 10 6 C10.33 6.66 10.66 7.32 11 8 C11.66 8 12.32 8 13 8 C13.12375 7.236875 13.2475 6.47375 13.375 5.6875 C14 3 14 3 16 0 C17.32 0.33 18.64 0.66 20 1 C19.67 1.66 19.34 2.32 19 3 C19.99 3.33 20.98 3.66 22 4 C21.814375 5.134375 21.62875 6.26875 21.4375 7.4375 C21.2209375 9.2009375 21.2209375 9.2009375 21 11 C22.05270463 12.15811388 22.05270463 12.15811388 24 13 C23.814375 13.94875 23.62875 14.8975 23.4375 15.875 C22.71313368 18.89868793 22.71313368 18.89868793 24 21 C21 22 21 22 20 22 C19.67 22.66 19.34 23.32 19 24 C17.35 23.34 15.7 22.68 14 22 C12.35 23.65 10.7 25.3 9 27 C8.01 26.67 7.02 26.34 6 26 C4.35 27.65 2.7 29.3 1 31 C0.34 29.68 -0.32 28.36 -1 27 C-1.99 27.33 -2.98 27.66 -4 28 C-4.03738281 27.01 -4.07476563 26.02 -4.11328125 25 C-4.38733691 16.47624324 -4.38733691 16.47624324 -6.625 8.3125 C-8.03803543 4.90836919 -8.22281896 4.26085057 -7 1 C-4.09342573 -1.03460199 -3.47133392 -1.15711131 0 0 Z " fill="#008EF1" transform="translate(790,1113)"/>
<path d="M0 0 C0.66 0.33 1.32 0.66 2 1 C2 1.33 2 1.66 2 2 C2.99 2.33 3.98 2.66 5 3 C4.67 4.32 4.34 5.64 4 7 C7.60992379 6.34414811 7.60992379 6.34414811 11 5 C11 5.99 11 6.98 11 8 C9.82287058 9.17712942 8.63840242 10.34713368 7.4375 11.5 C5.89699698 12.95935935 5.89699698 12.95935935 5 15 C3.15234375 16.0703125 3.15234375 16.0703125 0.9375 17.125 C0.20402344 17.47820312 -0.52945313 17.83140625 -1.28515625 18.1953125 C-1.85105469 18.46085937 -2.41695312 18.72640625 -3 19 C-3.66 18.34 -4.32 17.68 -5 17 C-5.66 17 -6.32 17 -7 17 C-8.32 14.36 -9.64 11.72 -11 9 C-10.34 9 -9.68 9 -9 9 C-8.95875 8.4225 -8.9175 7.845 -8.875 7.25 C-7.36174799 3.35878056 -3.60242004 1.80121002 0 0 Z " fill="#005FEB" transform="translate(632,1213)"/>
<path d="M0 0 C1.9375 0.625 1.9375 0.625 4 2 C4.625 5.0625 4.625 5.0625 5 8 C5.66 8.33 6.32 8.66 7 9 C6.34 10.32 5.68 11.64 5 13 C4.34 13 3.68 13 3 13 C3 13.99 3 14.98 3 16 C6.465 15.505 6.465 15.505 10 15 C8.71034824 16.37562854 7.37310707 17.70766393 6 19 C5.34 19 4.68 19 4 19 C4 18.34 4 17.68 4 17 C3.34 17 2.68 17 2 17 C2 17.66 2 18.32 2 19 C-0.5 20.625 -0.5 20.625 -3 22 C-2.01 22.66 -1.02 23.32 0 24 C-0.33 25.32 -0.66 26.64 -1 28 C-2.65 27.67 -4.3 27.34 -6 27 C-6.125 24.625 -6.125 24.625 -6 22 C-5.34 21.34 -4.68 20.68 -4 20 C-4.00922702 17.45286596 -4.00922702 17.45286596 -5 15 C-7.00217545 13.82679535 -7.00217545 13.82679535 -9 13 C-8.57847656 12.54109375 -8.15695312 12.0821875 -7.72265625 11.609375 C-6.90087891 10.68898438 -6.90087891 10.68898438 -6.0625 9.75 C-5.51722656 9.14671875 -4.97195313 8.5434375 -4.41015625 7.921875 C-2.93787201 5.91532695 -2.42470811 4.42997551 -2 2 C-1.34 2 -0.68 2 0 2 C0 1.34 0 0.68 0 0 Z " fill="#007DEF" transform="translate(680,1162)"/>
<path d="M0 0 C2 1 2 1 3.125 3.8125 C4 7 4 7 4 11 C4.66 11 5.32 11 6 11 C5.67 12.32 5.34 13.64 5 15 C4.01 14.67 3.02 14.34 2 14 C1.34 14.66 0.68 15.32 0 16 C0 14.02 0 12.04 0 10 C-3.10551666 10 -4.35261084 10.5393715 -7 12 C-7 12.99 -7 13.98 -7 15 C-8.875 16.0625 -8.875 16.0625 -11 17 C-11.66 16.67 -12.32 16.34 -13 16 C-13.99 16.33 -14.98 16.66 -16 17 C-18.1875 15.5625 -18.1875 15.5625 -20 14 C-19.67 13.01 -19.34 12.02 -19 11 C-18.34 11.66 -17.68 12.32 -17 13 C-16.67 11.35 -16.34 9.7 -16 8 C-15.01 7.67 -14.02 7.34 -13 7 C-12.34 7.33 -11.68 7.66 -11 8 C-10.67 7.01 -10.34 6.02 -10 5 C-4.25 3.875 -4.25 3.875 -2 5 C-1.855625 4.360625 -1.71125 3.72125 -1.5625 3.0625 C-1 1 -1 1 0 0 Z " fill="#007EEF" transform="translate(655,1170)"/>
<path d="M0 0 C2.97 0 5.94 0 9 0 C9 0.66 9 1.32 9 2 C8.34 2 7.68 2 7 2 C6.67 2.99 6.34 3.98 6 5 C5.67 4.67 5.34 4.34 5 4 C3.19070474 6.22049872 2.06136996 7.74838318 1.375 10.5625 C-0.62772751 14.11278967 -3.30878908 14.43673632 -7.1015625 15.51953125 C-7.72804687 15.67808594 -8.35453125 15.83664062 -9 16 C-8.67 14.35 -8.34 12.7 -8 11 C-8.66 11 -9.32 11 -10 11 C-9.375 8.5625 -9.375 8.5625 -8 6 C-5 5.3125 -5 5.3125 -2 5 C-1.34 4.34 -0.68 3.68 0 3 C0 2.01 0 1.02 0 0 Z " fill="#00A9F4" transform="translate(253,898)"/>
<path d="M0 0 C0.66 0 1.32 0 2 0 C1.67 1.98 1.34 3.96 1 6 C2.65 6 4.3 6 6 6 C5.34 9.3 4.68 12.6 4 16 C2.33333333 16 0.66666667 16 -1 16 C-1.33 16.99 -1.66 17.98 -2 19 C-2.33 18.01 -2.66 17.02 -3 16 C-2.67 15.67 -2.34 15.34 -2 15 C-3.32 14.67 -4.64 14.34 -6 14 C-6.6875 11.6875 -6.6875 11.6875 -7 9 C-5.6875 7.1875 -5.6875 7.1875 -4 6 C-3.34 6 -2.68 6 -2 6 C-2 5.01 -2 4.02 -2 3 C-1.34 3 -0.68 3 0 3 C0 2.01 0 1.02 0 0 Z M0 6 C1 8 1 8 1 8 Z M1 13 C1.66 13.66 2.32 14.32 3 15 C3 14.34 3 13.68 3 13 C2.34 13 1.68 13 1 13 Z " fill="#009EF3" transform="translate(707,1115)"/>
<path d="M0 0 C2.99332739 0.9977758 3.94766315 1.7522025 6 4 C5.34 4.66 4.68 5.32 4 6 C3.29788106 7.65204456 2.63028587 9.31923769 2 11 C1.67 11.66 1.34 12.32 1 13 C0.01 12.67 -0.98 12.34 -2 12 C-1.34 11.01 -0.68 10.02 0 9 C0 8.34 0 7.68 0 7 C-0.86625 7.2165625 -0.86625 7.2165625 -1.75 7.4375 C-4.875 8.21875 -4.875 8.21875 -8 9 C-8.33 6.69 -8.66 4.38 -9 2 C-8.34 2 -7.68 2 -7 2 C-7 2.66 -7 3.32 -7 4 C-4.97954558 3.39816251 -2.97888961 2.72693904 -1 2 C-0.67 1.34 -0.34 0.68 0 0 Z M-10 8 C-9.34 8.66 -8.68 9.32 -8 10 C-8.99 10.495 -8.99 10.495 -10 11 C-10 10.01 -10 9.02 -10 8 Z " fill="#005EEB" transform="translate(770,1205)"/>
<path d="M0 0 C0.99 0.33 1.98 0.66 3 1 C3.99 0.67 4.98 0.34 6 0 C5.95875 1.11375 5.9175 2.2275 5.875 3.375 C5.58878141 7.04366025 5.58878141 7.04366025 8 9 C2.375 13 2.375 13 -1 13 C-1 11.35 -1 9.7 -1 8 C-1.99 7.67 -2.98 7.34 -4 7 C-3.67 6.34 -3.34 5.68 -3 5 C-1.68 5 -0.36 5 1 5 C0.67 3.35 0.34 1.7 0 0 Z " fill="#006BED" transform="translate(655,1195)"/>
<path d="M0 0 C3.125 -0.1875 3.125 -0.1875 6 0 C6 0.66 6 1.32 6 2 C6.66 2 7.32 2 8 2 C8 2.66 8 3.32 8 4 C7.34 4 6.68 4 6 4 C5.9175 4.61875 5.835 5.2375 5.75 5.875 C5 8 5 8 3.25 9.25 C0.71262971 10.0957901 -1.34234296 10.14764761 -4 10 C-3.505 9.1028125 -3.505 9.1028125 -3 8.1875 C-1.79212012 5.94613529 -1.79212012 5.94613529 -2 3 C-1.34 2.01 -0.68 1.02 0 0 Z " fill="#00A0F3" transform="translate(680,1122)"/>
<path d="M0 0 C1.32 0.33 2.64 0.66 4 1 C4 1.66 4 2.32 4 3 C3.01 3.495 3.01 3.495 2 4 C2.66 4.66 3.32 5.32 4 6 C3.01 6 2.02 6 1 6 C0.67 7.98 0.34 9.96 0 12 C-0.99 12 -1.98 12 -3 12 C-3.33 12.66 -3.66 13.32 -4 14 C-4.33 13.34 -4.66 12.68 -5 12 C-5.99 12.495 -5.99 12.495 -7 13 C-7.33 11.35 -7.66 9.7 -8 8 C-6.68 8.33 -5.36 8.66 -4 9 C-3.8453125 8.1646875 -3.8453125 8.1646875 -3.6875 7.3125 C-2.86866423 4.55823422 -1.54146219 2.41272343 0 0 Z " fill="#0057EA" transform="translate(707,1213)"/>
<path d="M0 0 C2.25245881 2.68841859 3.88213958 4.64641875 5 8 C4.0625 10.1875 4.0625 10.1875 3 12 C2.34 11.67 1.68 11.34 1 11 C1 10.34 1 9.68 1 9 C-1.97 8.505 -1.97 8.505 -5 8 C-4.01 6.02 -3.02 4.04 -2 2 C-1.34 2 -0.68 2 0 2 C0 1.34 0 0.68 0 0 Z " fill="#004BE9" transform="translate(727,1233)"/>
<path d="M0 0 C2.4375 0.75 2.4375 0.75 5 2 C5.9375 4 5.9375 4 6 6 C5.34 6.66 4.68 7.32 4 8 C3.01 8 2.02 8 1 8 C1 8.66 1 9.32 1 10 C-0.32 9.34 -1.64 8.68 -3 8 C-2.67 6.68 -2.34 5.36 -2 4 C-1.34 4 -0.68 4 0 4 C0 2.68 0 1.36 0 0 Z " fill="#0062EC" transform="translate(593,1222)"/>
<path d="M0 0 C1.9375 0.3125 1.9375 0.3125 4 1 C4.33 1.99 4.66 2.98 5 4 C5.66 4.66 6.32 5.32 7 6 C6.360625 6.28875 5.72125 6.5775 5.0625 6.875 C2.84793921 7.82823451 2.84793921 7.82823451 2 10 C-1 9 -1 9 -2.375 6.6875 C-3 4 -3 4 -1.625 1.6875 C-0.820625 0.8521875 -0.820625 0.8521875 0 0 Z " fill="#00A1F4" transform="translate(780,1095)"/>
<path d="M0 0 C0.33 0.66 0.66 1.32 1 2 C0.34 2 -0.32 2 -1 2 C-0.938125 3.093125 -0.87625 4.18625 -0.8125 5.3125 C-1 9 -1 9 -2.1875 11 C-4 12 -4 12 -6.6875 11.6875 C-7.450625 11.460625 -8.21375 11.23375 -9 11 C-8.52634425 6.73709821 -6.07761678 4.78451042 -3 2 C-2.01 1.34 -1.02 0.68 0 0 Z " fill="#0070ED" transform="translate(577,1206)"/>
<path d="M0 0 C2.31 0.33 4.62 0.66 7 1 C7 4 7 4 6 7 C5.38125 6.814375 4.7625 6.62875 4.125 6.4375 C1.95839822 5.76313824 1.95839822 5.76313824 0 7 C-0.93423645 3.98968256 -1.04449911 3.13349732 0 0 Z M8 1 C10 2 10 2 10 2 Z " fill="#0061EC" transform="translate(645,1215)"/>
<path d="M0 0 C0.33 1.32 0.66 2.64 1 4 C2.32 4.33 3.64 4.66 5 5 C4.67 5.99 4.34 6.98 4 8 C3.34 7.67 2.68 7.34 2 7 C1.67 7.66 1.34 8.32 1 9 C-1.32156597 9.40729228 -3.6568787 9.74438677 -6 10 C-5 7 -5 7 -2 5 C-0.79549696 2.44816596 -0.79549696 2.44816596 0 0 Z " fill="#009DF3" transform="translate(789,1101)"/>
<path d="M0 0 C0.66 1.32 1.32 2.64 2 4 C0.35 4 -1.3 4 -3 4 C-3 4.66 -3 5.32 -3 6 C-3.99 6.33 -4.98 6.66 -6 7 C-6.66 5.68 -7.32 4.36 -8 3 C-5.53387212 -0.1151089 -3.89156016 -0.31553191 0 0 Z " fill="#006AEC" transform="translate(763,1189)"/>
<path d="M0 0 C1.65 0.33 3.3 0.66 5 1 C4.67 2.98 4.34 4.96 4 7 C3.34 7 2.68 7 2 7 C1.67 7.66 1.34 8.32 1 9 C0.34 8.34 -0.32 7.68 -1 7 C-1.66 6.67 -2.32 6.34 -3 6 C-2 4 -1 2 0 0 Z " fill="#00A0F3" transform="translate(690,1123)"/>
<path d="M0 0 C3.6607519 1.22025063 3.92339441 2.126491 5.6875 5.4375 C6.34298828 6.64212891 6.34298828 6.64212891 7.01171875 7.87109375 C8 10 8 10 8 12 C6.35 12 4.7 12 3 12 C3.33 11.01 3.66 10.02 4 9 C2.99500868 6.37156116 2.55192629 5.27596315 0 4 C0 2.68 0 1.36 0 0 Z " fill="#0091F1" transform="translate(840,1102)"/>
<path d="M0 0 C0.66 0 1.32 0 2 0 C2 0.66 2 1.32 2 2 C2.66 2.33 3.32 2.66 4 3 C5.125 5.0625 5.125 5.0625 6 7 C4.125 8.0625 4.125 8.0625 2 9 C1.34 8.67 0.68 8.34 0 8 C0 7.01 0 6.02 0 5 C-0.66 5 -1.32 5 -2 5 C-1.34 3.35 -0.68 1.7 0 0 Z " fill="#0063EC" transform="translate(165,848)"/>
<path d="M0 0 C-0.33 1.98 -0.66 3.96 -1 6 C-5.455 6.495 -5.455 6.495 -10 7 C-9.34 6.67 -8.68 6.34 -8 6 C-7.71125 5.360625 -7.4225 4.72125 -7.125 4.0625 C-5.48861608 1.06246281 -3.39791907 0 0 0 Z " fill="#003EF1" transform="translate(1429,1363)"/>
<path d="M0 0 C1.625 1.6875 1.625 1.6875 3 4 C2.5 6.6875 2.5 6.6875 1 9 C-1.625 9.8125 -1.625 9.8125 -4 10 C-4.33 9.34 -4.66 8.68 -5 8 C-4.34 8 -3.68 8 -3 8 C-2.690625 7.05125 -2.38125 6.1025 -2.0625 5.125 C-1 2 -1 2 0 0 Z " fill="#007EEF" transform="translate(214,833)"/>
<path d="M0 0 C0.33 1.32 0.66 2.64 1 4 C0.01 4 -0.98 4 -2 4 C-2 4.66 -2 5.32 -2 6 C-2.99 6.33 -3.98 6.66 -5 7 C-5.66 6.01 -6.32 5.02 -7 4 C-6.34 3.01 -5.68 2.02 -5 1 C-3.35 1.33 -1.7 1.66 0 2 C0 1.34 0 0.68 0 0 Z " fill="#0042E8" transform="translate(616,1266)"/>
<path d="M0 0 C1.65 0 3.3 0 5 0 C5 0.66 5 1.32 5 2 C4.34 2 3.68 2 3 2 C2.95101562 2.71027344 2.90203125 3.42054687 2.8515625 4.15234375 C2.77679687 5.07144531 2.70203125 5.99054688 2.625 6.9375 C2.52058594 8.31228516 2.52058594 8.31228516 2.4140625 9.71484375 C2.27742187 10.46894531 2.14078125 11.22304687 2 12 C1.01 12.495 1.01 12.495 0 13 C0 8.71 0 4.42 0 0 Z " fill="#0047E8" transform="translate(939,1101)"/>
<path d="M0 0 C1.32 0.66 2.64 1.32 4 2 C3.34 2 2.68 2 2 2 C2.66 3.32 3.32 4.64 4 6 C3.34 6 2.68 6 2 6 C2 7.32 2 8.64 2 10 C0.68 9.67 -0.64 9.34 -2 9 C-1.855625 8.443125 -1.71125 7.88625 -1.5625 7.3125 C-0.97230872 4.88615805 -0.476571 2.45093655 0 0 Z " fill="#00ABF4" transform="translate(829,1065)"/>
<path d="M0 0 C2.125 0.9375 2.125 0.9375 4 2 C3.34 3.32 2.68 4.64 2 6 C1.34 6 0.68 6 0 6 C0 5.34 0 4.68 0 4 C-0.66 4 -1.32 4 -2 4 C-2 3.01 -2 2.02 -2 1 C-1.34 0.67 -0.68 0.34 0 0 Z " fill="#0063F5" transform="translate(1541,1247)"/>
<path d="M0 0 C-0.375 1.9375 -0.375 1.9375 -1 4 C-1.99 4.495 -1.99 4.495 -3 5 C-3.33 5.99 -3.66 6.98 -4 8 C-4.66 8 -5.32 8 -6 8 C-5.67 5.69 -5.34 3.38 -5 1 C-2 0 -2 0 0 0 Z " fill="#004DE9" transform="translate(703,1231)"/>
<path d="M0 0 C1.65 0.33 3.3 0.66 5 1 C5 1.99 5 2.98 5 4 C2.69 4.33 0.38 4.66 -2 5 C-1.34 3.35 -0.68 1.7 0 0 Z " fill="#0070ED" transform="translate(665,1192)"/>
<path d="M0 0 C1.98 0.99 1.98 0.99 4 2 C4.99 1.34 5.98 0.68 7 0 C7 0.66 7 1.32 7 2 C7.99 2.33 8.98 2.66 10 3 C7.25 4.1875 7.25 4.1875 4 5 C1.625 3.75 1.625 3.75 0 2 C0 1.34 0 0.68 0 0 Z " fill="#0074EE" transform="translate(661,1186)"/>
<path d="M0 0 C0.99 0.99 1.98 1.98 3 3 C2.01 3.495 2.01 3.495 1 4 C0.67 4.66 0.34 5.32 0 6 C-0.99 6.66 -1.98 7.32 -3 8 C-3.33 7.01 -3.66 6.02 -4 5 C-3.34 5 -2.68 5 -2 5 C-1.34 3.35 -0.68 1.7 0 0 Z " fill="#0055EA" transform="translate(720,1221)"/>
<path d="M0 0 C1.32 0.33 2.64 0.66 4 1 C3.34 1 2.68 1 2 1 C1.34 2.98 0.68 4.96 0 7 C-0.99 7 -1.98 7 -3 7 C-3 5.68 -3 4.36 -3 3 C-2.01 3 -1.02 3 0 3 C0 2.01 0 1.02 0 0 Z " fill="#0068ED" transform="translate(644,1206)"/>
<path d="M0 0 C0.33 0.66 0.66 1.32 1 2 C0.34 2 -0.32 2 -1 2 C-1.33 3.32 -1.66 4.64 -2 6 C-3.65 5.67 -5.3 5.34 -7 5 C-6.67 4.01 -6.34 3.02 -6 2 C-2.9375 0.8125 -2.9375 0.8125 0 0 Z " fill="#007EEF" transform="translate(696,1171)"/>
<path d="M0 0 C0.66 0.33 1.32 0.66 2 1 C2 1.66 2 2.32 2 3 C1.01 3 0.02 3 -1 3 C-1.33 4.65 -1.66 6.3 -2 8 C-4 6 -4 6 -4.125 3.375 C-4.08375 2.59125 -4.0425 1.8075 -4 1 C-3.01 1 -2.02 1 -1 1 C-0.67 0.67 -0.34 0.34 0 0 Z " fill="#00B1F5" transform="translate(825,1057)"/>
<path d="M0 0 C0.66 0 1.32 0 2 0 C2 2.64 2 5.28 2 8 C1.67 7.34 1.34 6.68 1 6 C0.01 6 -0.98 6 -2 6 C-1.49396008 3.83125748 -1.00016187 2.00032373 0 0 Z " fill="#0033EA" transform="translate(1627,1239)"/>
<path d="M0 0 C2.475 0.99 2.475 0.99 5 2 C4.67 3.32 4.34 4.64 4 6 C2.68 5.67 1.36 5.34 0 5 C0 3.35 0 1.7 0 0 Z " fill="#009EF3" transform="translate(826,1091)"/>
<path d="M0 0 C0.99 0 1.98 0 3 0 C2.67 2.64 2.34 5.28 2 8 C0.68 7.34 -0.64 6.68 -2 6 C-1.34 4.02 -0.68 2.04 0 0 Z " fill="#004BE9" transform="translate(676,1236)"/>
<path d="M0 0 C2.31 0.33 4.62 0.66 7 1 C7.33 1.99 7.66 2.98 8 4 C4.86650268 5.04449911 4.01031744 4.93423645 1 4 C0.67 2.68 0.34 1.36 0 0 Z " fill="#00A1F4" transform="translate(608,1146)"/>
<path d="M0 0 C0.99 0.99 1.98 1.98 3 3 C2.34 3 1.68 3 1 3 C1 3.66 1 4.32 1 5 C0.34 5 -0.32 5 -1 5 C-1.33 5.66 -1.66 6.32 -2 7 C-2.33 6.01 -2.66 5.02 -3 4 C-1.5625 1.8125 -1.5625 1.8125 0 0 Z " fill="#006CED" transform="translate(384,1176)"/>
<path d="M0 0 C0.66 0.66 1.32 1.32 2 2 C1.34 2 0.68 2 0 2 C0 1.34 0 0.68 0 0 Z M-1 2 C-0.375 3.875 -0.375 3.875 0 6 C-0.66 6.66 -1.32 7.32 -2 8 C-2.99 7.01 -3.98 6.02 -5 5 C-3.68 4.01 -2.36 3.02 -1 2 Z " fill="#00A6F4" transform="translate(767,1093)"/>
<path d="M0 0 C0 1.98 0 3.96 0 6 C-1.32 6.33 -2.64 6.66 -4 7 C-3.625 4.0625 -3.625 4.0625 -3 1 C-1 0 -1 0 0 0 Z " fill="#0054EA" transform="translate(948,1051)"/>
<path d="M0 0 C0.33 0 0.66 0 1 0 C1.33 1.98 1.66 3.96 2 6 C1.01 6.495 1.01 6.495 0 7 C0 6.34 0 5.68 0 5 C-1.65 4.67 -3.3 4.34 -5 4 C-5 3.34 -5 2.68 -5 2 C-4.360625 1.855625 -3.72125 1.71125 -3.0625 1.5625 C-1.02454854 1.18992819 -1.02454854 1.18992819 0 0 Z " fill="#0077EE" transform="translate(164,1000)"/>
<path d="M0 0 C0.99 0 1.98 0 3 0 C3 3 3 3 1.6875 4.38671875 C0.125 5.59114583 -1.4375 6.79557292 -3 8 C-2.37240135 5.07120629 -1.41377341 2.63904371 0 0 Z " fill="#006DED" transform="translate(201,784)"/>
<path d="M0 0 C0.66 0 1.32 0 2 0 C2 1.65 2 3.3 2 5 C0.02 5.99 0.02 5.99 -2 7 C-1.125 1.125 -1.125 1.125 0 0 Z " fill="#0068EC" transform="translate(598,1215)"/>
<path d="M0 0 C1.98 0.495 1.98 0.495 4 1 C3.34 2.32 2.68 3.64 2 5 C1.01 4.67 0.02 4.34 -1 4 C-0.67 2.68 -0.34 1.36 0 0 Z " fill="#007FEF" transform="translate(612,1183)"/>
<path d="M0 0 C0.99 0.99 1.98 1.98 3 3 C2.01 4.32 1.02 5.64 0 7 C-0.66 5.68 -1.32 4.36 -2 3 C-1.34 2.01 -0.68 1.02 0 0 Z " fill="#00AEF5" transform="translate(656,1107)"/>
<path d="M0 0 C0.66 0 1.32 0 2 0 C2.33 0.99 2.66 1.98 3 3 C2.01 3.66 1.02 4.32 0 5 C-0.5625 3.0625 -0.5625 3.0625 -1 1 C-0.67 0.67 -0.34 0.34 0 0 Z M-3 4 C-2.34 4.33 -1.68 4.66 -1 5 C-1.99 5.66 -2.98 6.32 -4 7 C-3.67 6.01 -3.34 5.02 -3 4 Z " fill="#00ABF5" transform="translate(849,1065)"/>
<path d="M0 0 C1.32 0.66 2.64 1.32 4 2 C4 2.99 4 3.98 4 5 C3.01 5.33 2.02 5.66 1 6 C0.34 4.35 -0.32 2.7 -1 1 C-0.67 0.67 -0.34 0.34 0 0 Z " fill="#0073EE" transform="translate(174,881)"/>
<path d="M0 0 C0.99 0.66 1.98 1.32 3 2 C2.01 2.99 1.02 3.98 0 5 C-0.99 4.67 -1.98 4.34 -3 4 C-2.67 3.01 -2.34 2.02 -2 1 C-1.34 0.67 -0.68 0.34 0 0 Z " fill="#0076EE" transform="translate(211,795)"/>
<path d="M0 0 C0.66 0 1.32 0 2 0 C2 0.66 2 1.32 2 2 C2.99 2.33 3.98 2.66 5 3 C4.01 4.485 4.01 4.485 3 6 C1.68 5.01 0.36 4.02 -1 3 C-0.67 2.01 -0.34 1.02 0 0 Z " fill="#0053F3" transform="translate(1501,1305)"/>
<path d="M0 0 C-1 3 -1 3 -4.0625 4.6875 C-5.031875 5.120625 -6.00125 5.55375 -7 6 C-7 3 -7 3 -5.75 1.3125 C-4 0 -4 0 0 0 Z " fill="#0040E8" transform="translate(690,1253)"/>
<path d="M0 0 C0.99 0.33 1.98 0.66 3 1 C2.34 2.32 1.68 3.64 1 5 C0.34 5 -0.32 5 -1 5 C-1.33 3.68 -1.66 2.36 -2 1 C-1.34 0.67 -0.68 0.34 0 0 Z " fill="#0050F1" transform="translate(1608,1212)"/>
</svg>
